<svg xmlns="http://www.w3.org/2000/svg" viewBox="0 0 1200 1200" preserveAspectRatio="xMidYMid slice">
  <defs>
    <pattern id="dots-12" x="0" y="0" width="14" height="14" patternUnits="userSpaceOnUse">
      <circle cx="2" cy="2" r="1" fill="#1c2030" opacity="0.10" />
    </pattern>
    <pattern id="grid-12" x="0" y="0" width="40" height="40" patternUnits="userSpaceOnUse">
      <path d="M40 0 L0 0 0 40" fill="none" stroke="#1c2030" stroke-width="0.6" opacity="0.08" />
    </pattern>
    <pattern id="hatch-12" x="0" y="0" width="6" height="6" patternUnits="userSpaceOnUse" patternTransform="rotate(45)">
      <line x1="0" y1="0" x2="0" y2="6" stroke="#8b5cf6" stroke-width="2" opacity="0.55" />
    </pattern>
    <linearGradient id="paper-12" x1="0" y1="0" x2="0" y2="1">
      <stop offset="0" stop-color="#ffffff" />
      <stop offset="1" stop-color="#f8f3e8" />
    </linearGradient>
    <linearGradient id="accent-12" x1="0" y1="0" x2="1" y2="1">
      <stop offset="0" stop-color="#8b5cf6" stop-opacity="0.95" />
      <stop offset="1" stop-color="#8b5cf6" stop-opacity="0.55" />
    </linearGradient>
    <filter id="grain-12">
      <feTurbulence type="fractalNoise" baseFrequency="0.9" numOctaves="2" stitchTiles="stitch" />
      <feColorMatrix values="0 0 0 0 0 0 0 0 0 0 0 0 0 0 0 0 0 0 0.08 0" />
      <feComposite in2="SourceGraphic" operator="in" />
    </filter>
  </defs>

  <rect width="1200" height="1200" fill="transparent" />
  <rect width="1200" height="1200" fill="none" />

  <rect x="62" y="108" width="1080" height="1000" rx="18" fill="rgba(28,32,48,0.08)" />
  <rect x="60" y="100" width="1080" height="1000" rx="18" fill="#ffffff" stroke="#d9d2c2" stroke-width="1" />

  <rect x="60" y="100" width="1080" height="60" rx="18" fill="#fbf8f1" />
  <rect x="60" y="140" width="1080" height="20" fill="#fbf8f1" />
  <rect x="86" y="118" width="24" height="24" rx="5" fill="#8b5cf6" opacity="0.18" />
  <rect x="96" y="124" width="4" height="12" rx="2" fill="#8b5cf6" />
  <rect x="124" y="124" width="140" height="12" rx="6" fill="#1c2030" opacity="0.85" />
  <path d="M 280 124 l 6 6 l -6 6" fill="none" stroke="#5b6175" stroke-width="2" stroke-linecap="round" stroke-linejoin="round" />
  <rect x="300" y="124" width="100" height="12" rx="6" fill="#5b6175" opacity="0.6" />

  <rect x="530" y="116" width="140" height="28" rx="8" fill="#ffffff" stroke="#d9d2c2" stroke-width="1" />
  <g transform="translate(548, 124)">
    <rect x="0" y="0" width="18" height="12" rx="2" fill="none" stroke="#1c2030" stroke-width="1.5" />
    <rect x="6" y="13" width="6" height="2" fill="#1c2030" />
  </g>
  <rect x="572" y="120" width="30" height="20" rx="4" fill="#8b5cf6" opacity="0.18" />
  <g transform="translate(580, 124)">
    <rect x="0" y="0" width="14" height="14" rx="2" fill="none" stroke="#8b5cf6" stroke-width="1.5" />
  </g>
  <g transform="translate(620, 124)">
    <rect x="0" y="0" width="10" height="14" rx="2" fill="none" stroke="#1c2030" stroke-width="1.5" />
  </g>
  <g transform="translate(650, 122)">
    <path d="M 0 0 q 8 -4 16 0" fill="none" stroke="#5b6175" stroke-width="1.5" stroke-linecap="round" stroke-linejoin="round" />
    <path d="M -4 4 q 12 -8 24 0" fill="none" stroke="#5b6175" stroke-width="1.5" stroke-linecap="round" stroke-linejoin="round" />
  </g>

  <rect x="960" y="116" width="80" height="28" rx="6" fill="#ffffff" stroke="#d9d2c2" stroke-width="1" />
  <rect x="976" y="128" width="48" height="4" rx="2" fill="#5b6175" />
  <rect x="1048" y="116" width="80" height="28" rx="6" fill="#1c2030" />
  <rect x="1064" y="128" width="48" height="4" rx="2" fill="#ffffff" opacity="0.9" />

  <rect x="60" y="160" width="280" height="940" fill="#fbf8f1" />
  <line x1="340" y1="160" x2="340" y2="1100" stroke="#d9d2c2" stroke-width="1" stroke-linecap="round" />

  <rect x="78" y="180" width="244" height="36" rx="6" fill="#ffffff" stroke="#d9d2c2" stroke-width="1" />
  <rect x="88" y="192" width="4" height="12" rx="2" fill="#5b6175" />
  <path d="M 100 192 l 8 4 l -8 4 z" fill="#5b6175" />
  <rect x="118" y="194" width="100" height="8" rx="4" fill="#1c2030" opacity="0.85" />
  <circle cx="304" cy="192" r="1.5" fill="#9ba2b3" />
  <circle cx="310" cy="192" r="1.5" fill="#9ba2b3" />
  <circle cx="304" cy="197" r="1.5" fill="#9ba2b3" />
  <circle cx="310" cy="197" r="1.5" fill="#9ba2b3" />
  <circle cx="304" cy="202" r="1.5" fill="#9ba2b3" />
  <circle cx="310" cy="202" r="1.5" fill="#9ba2b3" />

  <rect x="78" y="226" width="244" height="36" rx="6" fill="#ffffff" stroke="#d9d2c2" stroke-width="1" />
  <path d="M 92 240 l 4 4 l 4 -4" fill="none" stroke="#5b6175" stroke-width="1.5" stroke-linecap="round" stroke-linejoin="round" />
  <rect x="110" y="240" width="80" height="8" rx="4" fill="#1c2030" opacity="0.7" />

  <rect x="78" y="272" width="244" height="36" rx="6" fill="#8b5cf6" stroke="#8b5cf6" stroke-width="2" opacity="0.18" />
  <path d="M 92 286 l 4 4 l 4 -4" fill="none" stroke="#8b5cf6" stroke-width="2" stroke-linecap="round" stroke-linejoin="round" />
  <rect x="110" y="286" width="110" height="8" rx="4" fill="#1c2030" opacity="0.85" />
  <circle cx="308" cy="290" r="4" fill="#8b5cf6" />

  <rect x="98" y="320" width="220" height="30" rx="6" fill="#ffffff" stroke="#d9d2c2" stroke-width="1" />
  <rect x="112" y="332" width="60" height="6" rx="3" fill="#5b6175" />
  <rect x="178" y="332" width="60" height="6" rx="3" fill="#5b6175" />
  <rect x="98" y="358" width="220" height="30" rx="6" fill="#ffffff" stroke="#d9d2c2" stroke-width="1" />
  <rect x="112" y="370" width="90" height="6" rx="3" fill="#5b6175" />
  <rect x="98" y="396" width="220" height="30" rx="6" fill="#ffffff" stroke="#d9d2c2" stroke-width="1" />
  <rect x="112" y="408" width="70" height="6" rx="3" fill="#5b6175" />
  <rect x="98" y="434" width="220" height="30" rx="6" fill="none" stroke="#d9d2c2" stroke-width="1" />
  <path d="M 200 449 h 18 m -9 -9 v 18" fill="none" stroke="#5b6175" stroke-width="1.5" stroke-linecap="round" stroke-linejoin="round" />
  <rect x="222" y="446" width="50" height="6" rx="3" fill="#5b6175" />

  <rect x="78" y="482" width="244" height="36" rx="6" fill="#ffffff" stroke="#d9d2c2" stroke-width="1" />
  <path d="M 92 496 l 4 4 l 4 -4" fill="none" stroke="#5b6175" stroke-width="1.5" stroke-linecap="round" stroke-linejoin="round" />
  <rect x="110" y="496" width="100" height="8" rx="4" fill="#1c2030" opacity="0.7" />

  <rect x="78" y="524" width="244" height="36" rx="6" fill="#ffffff" stroke="#d9d2c2" stroke-width="1" />
  <path d="M 92 538 l 4 4 l 4 -4" fill="none" stroke="#5b6175" stroke-width="1.5" stroke-linecap="round" stroke-linejoin="round" />
  <rect x="110" y="538" width="108" height="8" rx="4" fill="#1c2030" opacity="0.7" />

  <rect x="78" y="566" width="244" height="36" rx="6" fill="#ffffff" stroke="#d9d2c2" stroke-width="1" />
  <path d="M 92 580 l 4 4 l 4 -4" fill="none" stroke="#5b6175" stroke-width="1.5" stroke-linecap="round" stroke-linejoin="round" />
  <rect x="110" y="580" width="116" height="8" rx="4" fill="#1c2030" opacity="0.7" />

  <rect x="78" y="608" width="244" height="36" rx="6" fill="#ffffff" stroke="#d9d2c2" stroke-width="1" />
  <path d="M 92 622 l 4 4 l 4 -4" fill="none" stroke="#5b6175" stroke-width="1.5" stroke-linecap="round" stroke-linejoin="round" />
  <rect x="110" y="622" width="124" height="8" rx="4" fill="#1c2030" opacity="0.7" />

  <rect x="78" y="672" width="244" height="36" rx="6" fill="#ffffff" stroke="#d9d2c2" stroke-width="1" />
  <path d="M 92 686 l 4 4 l 4 -4" fill="none" stroke="#5b6175" stroke-width="1.5" stroke-linecap="round" stroke-linejoin="round" />
  <rect x="110" y="686" width="56" height="8" rx="4" fill="#1c2030" opacity="0.7" />

  <rect x="78" y="730" width="244" height="40" rx="6" fill="none" stroke="#8b5cf6" stroke-width="1.5" opacity="0.7" />
  <path d="M 178 750 h 16 m -8 -8 v 16" fill="none" stroke="#8b5cf6" stroke-width="2" stroke-linecap="round" stroke-linejoin="round" />
  <rect x="200" y="746" width="100" height="8" rx="4" fill="#8b5cf6" opacity="0.9" />

  <rect x="78" y="1020" width="244" height="56" rx="12" fill="#efe7d3" />
  <rect x="96" y="1038" width="80" height="8" rx="4" fill="#9ba2b3" />
  <rect x="96" y="1054" width="120" height="10" rx="5" fill="#1c2030" opacity="0.85" />
  <path d="M 298 1048 l -8 -6 m 8 -2 l -8 6" fill="none" stroke="#5b6175" stroke-width="1.5" stroke-linecap="round" stroke-linejoin="round" />

  <rect x="360" y="180" width="580" height="880" rx="16" fill="#efe7d3" />
  <rect x="380" y="200" width="540" height="840" rx="10" fill="#ffffff" />
  <rect x="380" y="200" width="540" height="36" rx="10" fill="#ffffff" />
  <rect x="380" y="226" width="540" height="10" fill="#ffffff" />
  <rect x="400" y="214" width="60" height="8" rx="4" fill="#1c2030" opacity="0.85" />
  <rect x="680" y="214" width="30" height="6" rx="3" fill="#5b6175" />
  <rect x="720" y="214" width="36" height="6" rx="3" fill="#5b6175" />
  <rect x="766" y="214" width="30" height="6" rx="3" fill="#5b6175" />
  <circle cx="880" cy="218" r="5" fill="#5b6175" />
  <circle cx="896" cy="218" r="5" fill="#5b6175" />

  <rect x="380" y="236" width="540" height="22" fill="#1c2030" />
  <rect x="580" y="244" width="140" height="6" rx="3" fill="#ffffff" opacity="0.85" />

  <rect x="380" y="258" width="540" height="360" fill="#e8dec6" />
  <rect x="380" y="258" width="540" height="360" fill="#8b5cf6" opacity="0.22" />
  <circle cx="550" cy="420" r="64" fill="#8b5cf6" opacity="0.85" />
  <path d="M 540 420 L 540 396 L 560 408 Z M 540 444 L 540 420 L 560 432 Z" fill="#ffffff" opacity="0.9" />
  <rect x="420" y="480" width="280" height="14" rx="7" fill="#1c2030" opacity="0.9" />
  <rect x="420" y="504" width="200" height="8" rx="4" fill="#1c2030" opacity="0.6" />
  <rect x="420" y="518" width="240" height="8" rx="4" fill="#1c2030" opacity="0.6" />
  <rect x="420" y="546" width="120" height="28" rx="6" fill="#1c2030" />
  <rect x="456" y="558" width="48" height="4" rx="2" fill="#ffffff" opacity="0.9" />

  <rect x="374" y="252" width="552" height="372" rx="4" fill="none" stroke="#8b5cf6" stroke-width="3" />
  <rect x="370" y="248" width="8" height="8" fill="#ffffff" stroke="#8b5cf6" stroke-width="2" />
  <rect x="646" y="248" width="8" height="8" fill="#ffffff" stroke="#8b5cf6" stroke-width="2" />
  <rect x="922" y="248" width="8" height="8" fill="#ffffff" stroke="#8b5cf6" stroke-width="2" />
  <rect x="370" y="434" width="8" height="8" fill="#ffffff" stroke="#8b5cf6" stroke-width="2" />
  <rect x="922" y="434" width="8" height="8" fill="#ffffff" stroke="#8b5cf6" stroke-width="2" />
  <rect x="370" y="620" width="8" height="8" fill="#ffffff" stroke="#8b5cf6" stroke-width="2" />
  <rect x="646" y="620" width="8" height="8" fill="#ffffff" stroke="#8b5cf6" stroke-width="2" />
  <rect x="922" y="620" width="8" height="8" fill="#ffffff" stroke="#8b5cf6" stroke-width="2" />
  <rect x="374" y="220" width="130" height="24" rx="4" fill="#8b5cf6" />
  <rect x="388" y="230" width="100" height="6" rx="3" fill="#ffffff" opacity="0.95" />

  <rect x="400" y="644" width="100" height="14" rx="7" fill="#1c2030" opacity="0.85" />
  <rect x="400" y="668" width="60" height="8" rx="4" fill="#9ba2b3" />
  <rect x="400" y="690" width="110" height="130" rx="8" fill="#efe7d3" />
  <rect x="400" y="824" width="80" height="10" rx="5" fill="#1c2030" opacity="0.85" />
  <rect x="400" y="840" width="50" height="6" rx="3" fill="#9ba2b3" />
  <rect x="530" y="690" width="110" height="130" rx="8" fill="#efe7d3" />
  <rect x="530" y="824" width="80" height="10" rx="5" fill="#1c2030" opacity="0.85" />
  <rect x="530" y="840" width="50" height="6" rx="3" fill="#9ba2b3" />
  <rect x="660" y="690" width="110" height="130" rx="8" fill="#efe7d3" />
  <rect x="660" y="824" width="80" height="10" rx="5" fill="#1c2030" opacity="0.85" />
  <rect x="660" y="840" width="50" height="6" rx="3" fill="#9ba2b3" />
  <rect x="790" y="690" width="110" height="130" rx="8" fill="#efe7d3" />
  <rect x="790" y="824" width="80" height="10" rx="5" fill="#1c2030" opacity="0.85" />
  <rect x="790" y="840" width="50" height="6" rx="3" fill="#9ba2b3" />

  <rect x="400" y="880" width="540" height="8" rx="4" fill="#1c2030" opacity="0.85" />
  <rect x="400" y="894" width="480" height="8" rx="4" fill="#9ba2b3" />
  <rect x="400" y="908" width="400" height="8" rx="4" fill="#9ba2b3" />

  <rect x="940" y="160" width="200" height="940" fill="#fbf8f1" />
  <rect x="960" y="184" width="60" height="22" rx="11" fill="#8b5cf6" opacity="0.18" />
  <rect x="972" y="192" width="36" height="6" rx="3" fill="#8b5cf6" />
  <rect x="1030" y="184" width="60" height="22" rx="11" fill="none" stroke="#d9d2c2" stroke-width="1" />
  <rect x="1042" y="192" width="36" height="6" rx="3" fill="#5b6175" />

  <rect x="960" y="232" width="80" height="8" rx="4" fill="#9ba2b3" />
  <rect x="960" y="250" width="160" height="36" rx="6" fill="#ffffff" stroke="#d9d2c2" stroke-width="1" />
  <rect x="972" y="262" width="90" height="8" rx="4" fill="#1c2030" opacity="0.85" />

  <rect x="960" y="300" width="80" height="8" rx="4" fill="#9ba2b3" />
  <rect x="960" y="318" width="160" height="80" rx="6" fill="#ffffff" stroke="#d9d2c2" stroke-width="1" />
  <rect x="970" y="328" width="60" height="60" rx="6" fill="#efe7d3" />
  <circle cx="1000" cy="358" r="18" fill="#8b5cf6" opacity="0.85" />
  <rect x="1042" y="340" width="70" height="8" rx="4" fill="#1c2030" opacity="0.85" />
  <rect x="1042" y="358" width="50" height="6" rx="3" fill="#9ba2b3" />
  <rect x="1042" y="374" width="64" height="6" rx="3" fill="#8b5cf6" />

  <rect x="960" y="416" width="80" height="8" rx="4" fill="#9ba2b3" />
  <rect x="960" y="434" width="160" height="32" rx="6" fill="#ffffff" stroke="#d9d2c2" stroke-width="1" />
  <rect x="960" y="434" width="53" height="32" rx="6" fill="#8b5cf6" opacity="0.18" />
  <line x1="976" y1="442" x2="996" y2="442" stroke="#8b5cf6" stroke-width="2" stroke-linecap="round" />
  <line x1="976" y1="450" x2="992" y2="450" stroke="#8b5cf6" stroke-width="2" stroke-linecap="round" />
  <line x1="976" y1="458" x2="1000" y2="458" stroke="#8b5cf6" stroke-width="2" stroke-linecap="round" />
  <line x1="1024" y1="442" x2="1044" y2="442" stroke="#5b6175" stroke-width="2" stroke-linecap="round" />
  <line x1="1020" y1="450" x2="1048" y2="450" stroke="#5b6175" stroke-width="2" stroke-linecap="round" />
  <line x1="1024" y1="458" x2="1044" y2="458" stroke="#5b6175" stroke-width="2" stroke-linecap="round" />
  <line x1="1080" y1="442" x2="1108" y2="442" stroke="#5b6175" stroke-width="2" stroke-linecap="round" />
  <line x1="1080" y1="450" x2="1100" y2="450" stroke="#5b6175" stroke-width="2" stroke-linecap="round" />
  <line x1="1080" y1="458" x2="1108" y2="458" stroke="#5b6175" stroke-width="2" stroke-linecap="round" />

  <rect x="960" y="484" width="80" height="8" rx="4" fill="#9ba2b3" />
  <circle cx="972" cy="514" r="12" fill="#8b5cf6" stroke="#d9d2c2" stroke-width="1" />
  <circle cx="972" cy="514" r="15" fill="none" stroke="#8b5cf6" stroke-width="2" />
  <circle cx="1002" cy="514" r="12" fill="#1c2030" stroke="#d9d2c2" stroke-width="1" />
  <circle cx="1032" cy="514" r="12" fill="#efe7d3" stroke="#d9d2c2" stroke-width="1" />
  <circle cx="1062" cy="514" r="12" fill="#34d399" stroke="#d9d2c2" stroke-width="1" />
  <circle cx="1092" cy="514" r="12" fill="#f43f5e" stroke="#d9d2c2" stroke-width="1" />

  <rect x="960" y="552" width="80" height="8" rx="4" fill="#9ba2b3" />
  <rect x="1090" y="550" width="32" height="14" rx="4" fill="#ffffff" stroke="#d9d2c2" stroke-width="1" />
  <rect x="1098" y="555" width="16" height="4" rx="2" fill="#1c2030" opacity="0.85" />
  <rect x="960" y="580" width="160" height="4" rx="2" fill="#d9d2c2" />
  <rect x="960" y="580" width="110" height="4" rx="2" fill="#8b5cf6" />
  <circle cx="1070" cy="582" r="9" fill="#8b5cf6" stroke="#ffffff" stroke-width="3" />

  <rect x="960" y="614" width="110" height="8" rx="4" fill="#1c2030" opacity="0.85" />
  <rect x="960" y="626" width="80" height="6" rx="3" fill="#9ba2b3" />
  <rect x="1086" y="614" width="36" height="20" rx="10" fill="#8b5cf6" />
  <circle cx="1112" cy="624" r="7" fill="#ffffff" />

  <rect x="960" y="656" width="110" height="8" rx="4" fill="#1c2030" opacity="0.85" />
  <rect x="960" y="668" width="70" height="6" rx="3" fill="#9ba2b3" />
  <rect x="1086" y="656" width="36" height="20" rx="10" fill="#e3dccd" />
  <circle cx="1096" cy="666" r="7" fill="#ffffff" />

  <rect x="960" y="700" width="80" height="8" rx="4" fill="#9ba2b3" />
  <rect x="960" y="718" width="160" height="32" rx="6" fill="#ffffff" stroke="#d9d2c2" stroke-width="1" />
  <rect x="974" y="730" width="90" height="8" rx="4" fill="#1c2030" opacity="0.85" />
  <path d="M 1100 732 l 6 6 l 6 -6" fill="none" stroke="#5b6175" stroke-width="2" stroke-linecap="round" stroke-linejoin="round" />

  <rect x="960" y="764" width="80" height="8" rx="4" fill="#9ba2b3" />
  <rect x="960" y="782" width="160" height="36" rx="6" fill="#ffffff" stroke="#d9d2c2" stroke-width="1" />
  <rect x="972" y="794" width="110" height="8" rx="4" fill="#1c2030" opacity="0.85" />

  <rect x="960" y="836" width="80" height="8" rx="4" fill="#9ba2b3" />
  <rect x="960" y="854" width="160" height="36" rx="6" fill="#ffffff" stroke="#d9d2c2" stroke-width="1" />
  <rect x="972" y="866" width="70" height="8" rx="4" fill="#8b5cf6" />

  <rect x="960" y="1024" width="160" height="36" rx="6" fill="none" stroke="#d9d2c2" stroke-width="1" />
  <rect x="1010" y="1036" width="60" height="8" rx="4" fill="#f43f5e" />
</svg>
