<svg xmlns="http://www.w3.org/2000/svg" viewBox="0 0 1200 1200" preserveAspectRatio="xMidYMid slice">
      
    <defs>
      <pattern id="dots-20" x="0" y="0" width="14" height="14" patternUnits="userSpaceOnUse">
        <circle cx="2" cy="2" r="1" fill="#1c2030" opacity="0.10"></circle>
      </pattern>
      <pattern id="grid-20" x="0" y="0" width="40" height="40" patternUnits="userSpaceOnUse">
        <path d="M40 0 L0 0 0 40" fill="none" stroke="#1c2030" stroke-width="0.6" opacity="0.08"></path>
      </pattern>
      <pattern id="hatch-20" x="0" y="0" width="6" height="6" patternUnits="userSpaceOnUse" patternTransform="rotate(45)">
        <line x1="0" y1="0" x2="0" y2="6" stroke="#fb923c" stroke-width="2" opacity="0.55"></line>
      </pattern>
      <linearGradient id="paper-20" x1="0" y1="0" x2="0" y2="1">
        <stop offset="0" stop-color="#ffffff"></stop>
        <stop offset="1" stop-color="#f8f3e8"></stop>
      </linearGradient>
      <linearGradient id="accent-20" x1="0" y1="0" x2="1" y2="1">
        <stop offset="0" stop-color="#fb923c" stop-opacity="0.95"></stop>
        <stop offset="1" stop-color="#fb923c" stop-opacity="0.55"></stop>
      </linearGradient>
<filter id="grain-20">
        <feTurbulence type="fractalNoise" baseFrequency="0.9" numOctaves="2" stitchTiles="stitch"></feTurbulence>
        <feColorMatrix values="0 0 0 0 0
                               0 0 0 0 0
                               0 0 0 0 0
                               0 0 0 0.08 0"></feColorMatrix>
        <feComposite in2="SourceGraphic" operator="in"></feComposite>
      </filter>
    </defs>
  
      
      <rect width="1200" height="1200" fill="transparent" />
  <rect width="1200" height="1200" fill="none" />
      
      
    

      
    <rect x="62" y="108" width="1080" height="1000" rx="22" fill="rgba(28,32,48,0.08)"></rect>
    <rect x="60" y="100" width="1080" height="1000" rx="22" fill="#ffffff" stroke="#d9d2c2" stroke-width="1"></rect>
  

      <!-- header -->
      <rect x="86" y="132" width="120" height="12" rx="4" fill="#5b6175" stroke="none" stroke-width="1" opacity="1"></rect>
      <rect x="86" y="156" width="240" height="22" rx="6" fill="#1c2030" stroke="none" stroke-width="1" opacity="1"></rect>
      <!-- date range -->
      <rect x="900" y="144" width="220" height="36" rx="8" fill="#ffffff" stroke="#d9d2c2" stroke-width="1" opacity="1"></rect>
      <circle cx="920" cy="162" r="8" fill="none" stroke="#5b6175" stroke-width="1.5" opacity="1"></circle>
      <line x1="920" y1="158" x2="920" y2="166" stroke="#5b6175" stroke-width="1.5" stroke-linecap="round" opacity="1"></line>
      <line x1="916" y1="162" x2="924" y2="162" stroke="#5b6175" stroke-width="1.5" stroke-linecap="round" opacity="1"></line>
      <rect x="938" y="158" width="120" height="8" rx="4" fill="#1c2030" stroke="none" stroke-width="1" opacity="0.85"></rect>
      <path d="M 1090 158 l 6 6 l 6 -6" fill="none" stroke="#5b6175" stroke-width="2" stroke-linecap="round" stroke-linejoin="round" opacity="1"></path>

      <!-- KPI tiles -->
      
            <rect x="86" y="200" width="244" height="132" rx="14" fill="#fbf8f1" stroke="#d9d2c2" stroke-width="1" opacity="1"></rect>
            <rect x="102" y="218" width="100" height="8" rx="4" fill="#9ba2b3" stroke="none" stroke-width="1" opacity="1"></rect>
            <rect x="102" y="238" width="140" height="26" rx="6" fill="#1c2030" stroke="none" stroke-width="1" opacity="1"></rect>
            <rect x="102" y="280" width="60" height="22" rx="11" fill="#dff5e8" stroke="none" stroke-width="1" opacity="1"></rect>
            <path d="M 114 296 l 6 -6 l 6 6" fill="none" stroke="#10b981" stroke-width="2" stroke-linecap="round" stroke-linejoin="round" opacity="1"></path>
            <rect x="134" y="289" width="22" height="5" rx="2" fill="#10b981" stroke="none" stroke-width="1" opacity="1"></rect>
            <!-- mini sparkline -->
            <path d="M 222 320 L 242 305 L 262 312 L 282 298 L 302 286 L 322 290" fill="none" stroke="#fb923c" stroke-width="2.5" stroke-linecap="round" stroke-linejoin="round" opacity="1"></path>
            <circle cx="322" cy="290" r="4" fill="#fb923c" stroke="none" stroke-width="1" opacity="1"></circle>
          
            <rect x="350" y="200" width="244" height="132" rx="14" fill="#fbf8f1" stroke="#d9d2c2" stroke-width="1" opacity="1"></rect>
            <rect x="366" y="218" width="100" height="8" rx="4" fill="#9ba2b3" stroke="none" stroke-width="1" opacity="1"></rect>
            <rect x="366" y="238" width="140" height="26" rx="6" fill="#1c2030" stroke="none" stroke-width="1" opacity="1"></rect>
            <rect x="366" y="280" width="60" height="22" rx="11" fill="#dff5e8" stroke="none" stroke-width="1" opacity="1"></rect>
            <path d="M 378 296 l 6 -6 l 6 6" fill="none" stroke="#10b981" stroke-width="2" stroke-linecap="round" stroke-linejoin="round" opacity="1"></path>
            <rect x="398" y="289" width="22" height="5" rx="2" fill="#10b981" stroke="none" stroke-width="1" opacity="1"></rect>
            <!-- mini sparkline -->
            <path d="M 486 320 L 506 305 L 526 312 L 546 298 L 566 286 L 586 290" fill="none" stroke="#6366f1" stroke-width="2.5" stroke-linecap="round" stroke-linejoin="round" opacity="1"></path>
            <circle cx="586" cy="290" r="4" fill="#6366f1" stroke="none" stroke-width="1" opacity="1"></circle>
          
            <rect x="614" y="200" width="244" height="132" rx="14" fill="#fbf8f1" stroke="#d9d2c2" stroke-width="1" opacity="1"></rect>
            <rect x="630" y="218" width="100" height="8" rx="4" fill="#9ba2b3" stroke="none" stroke-width="1" opacity="1"></rect>
            <rect x="630" y="238" width="140" height="26" rx="6" fill="#1c2030" stroke="none" stroke-width="1" opacity="1"></rect>
            <rect x="630" y="280" width="60" height="22" rx="11" fill="#fde2e4" stroke="none" stroke-width="1" opacity="1"></rect>
            <path d="M 642 290 l 6 6 l 6 -6" fill="none" stroke="#dc2626" stroke-width="2" stroke-linecap="round" stroke-linejoin="round" opacity="1"></path>
            <rect x="662" y="289" width="22" height="5" rx="2" fill="#dc2626" stroke="none" stroke-width="1" opacity="1"></rect>
            <!-- mini sparkline -->
            <path d="M 750 320 L 770 305 L 790 312 L 810 298 L 830 286 L 850 290" fill="none" stroke="#fb7185" stroke-width="2.5" stroke-linecap="round" stroke-linejoin="round" opacity="1"></path>
            <circle cx="850" cy="290" r="4" fill="#fb7185" stroke="none" stroke-width="1" opacity="1"></circle>
          
            <rect x="878" y="200" width="244" height="132" rx="14" fill="#fbf8f1" stroke="#d9d2c2" stroke-width="1" opacity="1"></rect>
            <rect x="894" y="218" width="100" height="8" rx="4" fill="#9ba2b3" stroke="none" stroke-width="1" opacity="1"></rect>
            <rect x="894" y="238" width="140" height="26" rx="6" fill="#1c2030" stroke="none" stroke-width="1" opacity="1"></rect>
            <rect x="894" y="280" width="60" height="22" rx="11" fill="#dff5e8" stroke="none" stroke-width="1" opacity="1"></rect>
            <path d="M 906 296 l 6 -6 l 6 6" fill="none" stroke="#10b981" stroke-width="2" stroke-linecap="round" stroke-linejoin="round" opacity="1"></path>
            <rect x="926" y="289" width="22" height="5" rx="2" fill="#10b981" stroke="none" stroke-width="1" opacity="1"></rect>
            <!-- mini sparkline -->
            <path d="M 1014 320 L 1034 305 L 1054 312 L 1074 298 L 1094 286 L 1114 290" fill="none" stroke="#34d399" stroke-width="2.5" stroke-linecap="round" stroke-linejoin="round" opacity="1"></path>
            <circle cx="1114" cy="290" r="4" fill="#34d399" stroke="none" stroke-width="1" opacity="1"></circle>
          

      <!-- Main chart -->
      <rect x="86" y="352" width="660" height="360" rx="14" fill="#fbf8f1" stroke="#d9d2c2" stroke-width="1" opacity="1"></rect>
      <rect x="106" y="370" width="140" height="12" rx="5" fill="#1c2030" stroke="none" stroke-width="1" opacity="0.9"></rect>
      <rect x="106" y="390" width="80" height="8" rx="4" fill="#9ba2b3" stroke="none" stroke-width="1" opacity="1"></rect>
      <!-- legend -->
      <circle cx="580" cy="380" r="6" fill="#fb923c" stroke="none" stroke-width="1" opacity="1"></circle>
      <rect x="594" y="376" width="50" height="6" rx="3" fill="#1c2030" stroke="none" stroke-width="1" opacity="0.85"></rect>
      <circle cx="660" cy="380" r="6" fill="#5b6175" stroke="none" stroke-width="1" opacity="1"></circle>
      <rect x="674" y="376" width="60" height="6" rx="3" fill="#1c2030" stroke="none" stroke-width="1" opacity="0.85"></rect>

      <!-- gridlines -->
      <line x1="116" y1="460" x2="720" y2="460" stroke="#d9d2c2" stroke-width="1" stroke-linecap="round" opacity="0.6"></line><line x1="116" y1="508" x2="720" y2="508" stroke="#d9d2c2" stroke-width="1" stroke-linecap="round" opacity="0.6"></line><line x1="116" y1="556" x2="720" y2="556" stroke="#d9d2c2" stroke-width="1" stroke-linecap="round" opacity="0.6"></line><line x1="116" y1="604" x2="720" y2="604" stroke="#d9d2c2" stroke-width="1" stroke-linecap="round" opacity="0.6"></line><line x1="116" y1="652" x2="720" y2="652" stroke="#d9d2c2" stroke-width="1" stroke-linecap="round" opacity="0.6"></line>
      <!-- y labels -->
      <rect x="86" y="456" width="22" height="5" rx="2" fill="#9ba2b3" stroke="none" stroke-width="1" opacity="1"></rect><rect x="86" y="504" width="22" height="5" rx="2" fill="#9ba2b3" stroke="none" stroke-width="1" opacity="1"></rect><rect x="86" y="552" width="22" height="5" rx="2" fill="#9ba2b3" stroke="none" stroke-width="1" opacity="1"></rect><rect x="86" y="600" width="22" height="5" rx="2" fill="#9ba2b3" stroke="none" stroke-width="1" opacity="1"></rect><rect x="86" y="648" width="22" height="5" rx="2" fill="#9ba2b3" stroke="none" stroke-width="1" opacity="1"></rect>

      <!-- prev period dashed line (light) -->
      <path d="M 116 660 L 176 640 L 236 620 L 296 624 L 356 600 L 416 580 L 476 588 L 536 560 L 596 544 L 656 540 L 716 524" fill="none" stroke="#5b6175" stroke-width="2" stroke-linecap="round" stroke-linejoin="round" opacity="0.45"></path>

      <!-- main area + line -->
      <path d="M 116 640 L 176 600 L 236 596 L 296 560 L 356 540 L 416 480 L 476 510 L 536 460 L 596 440 L 656 420 L 716 400 L 716 692 L 116 692 Z" fill="#fb923c" stroke="none" stroke-width="1" stroke-linecap="round" stroke-linejoin="round" opacity="0.2"></path>
      <path d="M 116 640 L 176 600 L 236 596 L 296 560 L 356 540 L 416 480 L 476 510 L 536 460 L 596 440 L 656 420 L 716 400" fill="none" stroke="#fb923c" stroke-width="4" stroke-linecap="round" stroke-linejoin="round" opacity="1"></path>
      <circle cx="116" cy="640" r="5" fill="#ffffff" stroke="#fb923c" stroke-width="3" opacity="1"></circle><circle cx="176" cy="600" r="5" fill="#ffffff" stroke="#fb923c" stroke-width="3" opacity="1"></circle><circle cx="236" cy="596" r="5" fill="#ffffff" stroke="#fb923c" stroke-width="3" opacity="1"></circle><circle cx="296" cy="560" r="5" fill="#ffffff" stroke="#fb923c" stroke-width="3" opacity="1"></circle><circle cx="356" cy="540" r="5" fill="#ffffff" stroke="#fb923c" stroke-width="3" opacity="1"></circle><circle cx="416" cy="480" r="5" fill="#ffffff" stroke="#fb923c" stroke-width="3" opacity="1"></circle><circle cx="476" cy="510" r="5" fill="#ffffff" stroke="#fb923c" stroke-width="3" opacity="1"></circle><circle cx="536" cy="460" r="5" fill="#ffffff" stroke="#fb923c" stroke-width="3" opacity="1"></circle><circle cx="596" cy="440" r="5" fill="#ffffff" stroke="#fb923c" stroke-width="3" opacity="1"></circle><circle cx="656" cy="420" r="5" fill="#ffffff" stroke="#fb923c" stroke-width="3" opacity="1"></circle><circle cx="716" cy="400" r="5" fill="#ffffff" stroke="#fb923c" stroke-width="3" opacity="1"></circle>

      <!-- hovered point tooltip -->
      <rect x="580" y="380" width="130" height="60" rx="8" fill="#1c2030" stroke="none" stroke-width="1" opacity="1"></rect>
      <path d="M 596 440 l -6 -8 l 12 0 z" fill="#1c2030" stroke="none" stroke-width="1" stroke-linecap="round" stroke-linejoin="round" opacity="1"></path>
      <rect x="594" y="396" width="80" height="6" rx="3" fill="#ffffff" stroke="none" stroke-width="1" opacity="0.95"></rect>
      <rect x="594" y="410" width="60" height="5" rx="2" fill="#ffffff" stroke="none" stroke-width="1" opacity="0.6"></rect>
      <rect x="594" y="424" width="50" height="8" rx="4" fill="#fb923c" stroke="none" stroke-width="1" opacity="1"></rect>

      <!-- x labels -->
      <rect x="116" y="700" width="36" height="5" rx="2" fill="#9ba2b3" stroke="none" stroke-width="1" opacity="1"></rect><rect x="266" y="700" width="36" height="5" rx="2" fill="#9ba2b3" stroke="none" stroke-width="1" opacity="1"></rect><rect x="416" y="700" width="36" height="5" rx="2" fill="#9ba2b3" stroke="none" stroke-width="1" opacity="1"></rect><rect x="566" y="700" width="36" height="5" rx="2" fill="#9ba2b3" stroke="none" stroke-width="1" opacity="1"></rect><rect x="716" y="700" width="36" height="5" rx="2" fill="#9ba2b3" stroke="none" stroke-width="1" opacity="1"></rect>

      <!-- TOP PRODUCTS (right of chart) -->
      <rect x="770" y="352" width="350" height="360" rx="14" fill="#fbf8f1" stroke="#d9d2c2" stroke-width="1" opacity="1"></rect>
      <rect x="790" y="370" width="130" height="12" rx="5" fill="#1c2030" stroke="none" stroke-width="1" opacity="0.9"></rect>
      <rect x="790" y="390" width="80" height="8" rx="4" fill="#9ba2b3" stroke="none" stroke-width="1" opacity="1"></rect>
      
          <rect x="790" y="420" width="44" height="44" rx="8" fill="#efe7d3" stroke="none" stroke-width="1" opacity="1"></rect>
          <circle cx="812" cy="442" r="14" fill="#fb923c" stroke="none" stroke-width="1" opacity="0.85"></circle>
          <rect x="848" y="428" width="140" height="8" rx="4" fill="#1c2030" stroke="none" stroke-width="1" opacity="0.85"></rect>
          <rect x="848" y="444" width="80" height="6" rx="3" fill="#9ba2b3" stroke="none" stroke-width="1" opacity="1"></rect>
          <rect x="1050" y="430" width="50" height="8" rx="4" fill="#1c2030" stroke="none" stroke-width="1" opacity="0.85"></rect>
          <rect x="1050" y="444" width="30" height="6" rx="3" fill="#9ba2b3" stroke="none" stroke-width="1" opacity="1"></rect>
          <rect x="848" y="458" width="200" height="4" rx="2" fill="#d9d2c2" stroke="none" stroke-width="1" opacity="1"></rect>
          <rect x="848" y="458" width="200" height="4" rx="2" fill="#fb923c" stroke="none" stroke-width="1" opacity="1"></rect>
        
          <rect x="790" y="472" width="44" height="44" rx="8" fill="#efe7d3" stroke="none" stroke-width="1" opacity="1"></rect>
          <circle cx="812" cy="494" r="14" fill="#6366f1" stroke="none" stroke-width="1" opacity="0.85"></circle>
          <rect x="848" y="480" width="140" height="8" rx="4" fill="#1c2030" stroke="none" stroke-width="1" opacity="0.85"></rect>
          <rect x="848" y="496" width="80" height="6" rx="3" fill="#9ba2b3" stroke="none" stroke-width="1" opacity="1"></rect>
          <rect x="1050" y="482" width="50" height="8" rx="4" fill="#1c2030" stroke="none" stroke-width="1" opacity="0.85"></rect>
          <rect x="1050" y="496" width="30" height="6" rx="3" fill="#9ba2b3" stroke="none" stroke-width="1" opacity="1"></rect>
          <rect x="848" y="510" width="200" height="4" rx="2" fill="#d9d2c2" stroke="none" stroke-width="1" opacity="1"></rect>
          <rect x="848" y="510" width="164" height="4" rx="2" fill="#6366f1" stroke="none" stroke-width="1" opacity="1"></rect>
        
          <rect x="790" y="524" width="44" height="44" rx="8" fill="#efe7d3" stroke="none" stroke-width="1" opacity="1"></rect>
          <circle cx="812" cy="546" r="14" fill="#fb7185" stroke="none" stroke-width="1" opacity="0.85"></circle>
          <rect x="848" y="532" width="140" height="8" rx="4" fill="#1c2030" stroke="none" stroke-width="1" opacity="0.85"></rect>
          <rect x="848" y="548" width="80" height="6" rx="3" fill="#9ba2b3" stroke="none" stroke-width="1" opacity="1"></rect>
          <rect x="1050" y="534" width="50" height="8" rx="4" fill="#1c2030" stroke="none" stroke-width="1" opacity="0.85"></rect>
          <rect x="1050" y="548" width="30" height="6" rx="3" fill="#9ba2b3" stroke="none" stroke-width="1" opacity="1"></rect>
          <rect x="848" y="562" width="200" height="4" rx="2" fill="#d9d2c2" stroke="none" stroke-width="1" opacity="1"></rect>
          <rect x="848" y="562" width="128" height="4" rx="2" fill="#fb7185" stroke="none" stroke-width="1" opacity="1"></rect>
        
          <rect x="790" y="576" width="44" height="44" rx="8" fill="#efe7d3" stroke="none" stroke-width="1" opacity="1"></rect>
          <circle cx="812" cy="598" r="14" fill="#34d399" stroke="none" stroke-width="1" opacity="0.85"></circle>
          <rect x="848" y="584" width="140" height="8" rx="4" fill="#1c2030" stroke="none" stroke-width="1" opacity="0.85"></rect>
          <rect x="848" y="600" width="80" height="6" rx="3" fill="#9ba2b3" stroke="none" stroke-width="1" opacity="1"></rect>
          <rect x="1050" y="586" width="50" height="8" rx="4" fill="#1c2030" stroke="none" stroke-width="1" opacity="0.85"></rect>
          <rect x="1050" y="600" width="30" height="6" rx="3" fill="#9ba2b3" stroke="none" stroke-width="1" opacity="1"></rect>
          <rect x="848" y="614" width="200" height="4" rx="2" fill="#d9d2c2" stroke="none" stroke-width="1" opacity="1"></rect>
          <rect x="848" y="614" width="92" height="4" rx="2" fill="#34d399" stroke="none" stroke-width="1" opacity="1"></rect>
        
          <rect x="790" y="628" width="44" height="44" rx="8" fill="#efe7d3" stroke="none" stroke-width="1" opacity="1"></rect>
          <circle cx="812" cy="650" r="14" fill="#facc15" stroke="none" stroke-width="1" opacity="0.85"></circle>
          <rect x="848" y="636" width="140" height="8" rx="4" fill="#1c2030" stroke="none" stroke-width="1" opacity="0.85"></rect>
          <rect x="848" y="652" width="80" height="6" rx="3" fill="#9ba2b3" stroke="none" stroke-width="1" opacity="1"></rect>
          <rect x="1050" y="638" width="50" height="8" rx="4" fill="#1c2030" stroke="none" stroke-width="1" opacity="0.85"></rect>
          <rect x="1050" y="652" width="30" height="6" rx="3" fill="#9ba2b3" stroke="none" stroke-width="1" opacity="1"></rect>
          <rect x="848" y="666" width="200" height="4" rx="2" fill="#d9d2c2" stroke="none" stroke-width="1" opacity="1"></rect>
          <rect x="848" y="666" width="56.00000000000001" height="4" rx="2" fill="#facc15" stroke="none" stroke-width="1" opacity="1"></rect>
        

      <!-- FUNNEL -->
      <rect x="86" y="732" width="1054" height="308" rx="14" fill="#fbf8f1" stroke="#d9d2c2" stroke-width="1" opacity="1"></rect>
      <rect x="106" y="752" width="200" height="12" rx="5" fill="#1c2030" stroke="none" stroke-width="1" opacity="0.9"></rect>
      <rect x="106" y="772" width="140" height="8" rx="4" fill="#9ba2b3" stroke="none" stroke-width="1" opacity="1"></rect>

      
            <rect x="106" y="836" width="180" height="164" rx="12" fill="#fb923c" stroke="none" stroke-width="1" opacity="0.4"></rect>
            <rect x="106" y="836" width="180" height="164" rx="12" fill="none" stroke="#fb923c" stroke-width="2" opacity="0.85"></rect>
            <rect x="118" y="848" width="90" height="8" rx="4" fill="#1c2030" stroke="none" stroke-width="1" opacity="0.9"></rect>
            <rect x="118" y="864" width="60" height="14" rx="5" fill="#1c2030" stroke="none" stroke-width="1" opacity="1"></rect>
            <rect x="118" y="1006" width="60" height="6" rx="3" fill="#5b6175" stroke="none" stroke-width="1" opacity="1"></rect>
            <path d="M 291 918 l 10 0 l 0 -6 l 14 8 l -14 8 l 0 -6 l -10 0 z" fill="#5b6175" stroke="none" stroke-width="1" stroke-linecap="round" stroke-linejoin="round" opacity="0.7"></path>
          
            <rect x="306" y="889.2" width="180" height="110.8" rx="12" fill="#fb923c" stroke="none" stroke-width="1" opacity="0.36000000000000004"></rect>
            <rect x="306" y="889.2" width="180" height="110.8" rx="12" fill="none" stroke="#fb923c" stroke-width="2" opacity="0.85"></rect>
            <rect x="318" y="901.2" width="90" height="8" rx="4" fill="#1c2030" stroke="none" stroke-width="1" opacity="0.9"></rect>
            <rect x="318" y="917.2" width="60" height="14" rx="5" fill="#1c2030" stroke="none" stroke-width="1" opacity="1"></rect>
            <rect x="318" y="1006" width="60" height="6" rx="3" fill="#5b6175" stroke="none" stroke-width="1" opacity="1"></rect>
            <path d="M 491 944.6 l 10 0 l 0 -6 l 14 8 l -14 8 l 0 -6 l -10 0 z" fill="#5b6175" stroke="none" stroke-width="1" stroke-linecap="round" stroke-linejoin="round" opacity="0.7"></path>
          
            <rect x="506" y="928.4" width="180" height="71.6" rx="12" fill="#fb923c" stroke="none" stroke-width="1" opacity="0.32"></rect>
            <rect x="506" y="928.4" width="180" height="71.6" rx="12" fill="none" stroke="#fb923c" stroke-width="2" opacity="0.85"></rect>
            <rect x="518" y="940.4" width="90" height="8" rx="4" fill="#1c2030" stroke="none" stroke-width="1" opacity="0.9"></rect>
            <rect x="518" y="956.4" width="60" height="14" rx="5" fill="#1c2030" stroke="none" stroke-width="1" opacity="1"></rect>
            <rect x="518" y="1006" width="60" height="6" rx="3" fill="#5b6175" stroke="none" stroke-width="1" opacity="1"></rect>
            <path d="M 691 964.2 l 10 0 l 0 -6 l 14 8 l -14 8 l 0 -6 l -10 0 z" fill="#5b6175" stroke="none" stroke-width="1" stroke-linecap="round" stroke-linejoin="round" opacity="0.7"></path>
          
            <rect x="706" y="950.8" width="180" height="49.2" rx="12" fill="#fb923c" stroke="none" stroke-width="1" opacity="0.28"></rect>
            <rect x="706" y="950.8" width="180" height="49.2" rx="12" fill="none" stroke="#fb923c" stroke-width="2" opacity="0.85"></rect>
            <rect x="718" y="962.8" width="90" height="8" rx="4" fill="#1c2030" stroke="none" stroke-width="1" opacity="0.9"></rect>
            <rect x="718" y="978.8" width="60" height="14" rx="5" fill="#1c2030" stroke="none" stroke-width="1" opacity="1"></rect>
            <rect x="718" y="1006" width="60" height="6" rx="3" fill="#5b6175" stroke="none" stroke-width="1" opacity="1"></rect>
            <path d="M 891 975.4 l 10 0 l 0 -6 l 14 8 l -14 8 l 0 -6 l -10 0 z" fill="#5b6175" stroke="none" stroke-width="1" stroke-linecap="round" stroke-linejoin="round" opacity="0.7"></path>
          
            <rect x="906" y="963.4" width="180" height="36.6" rx="12" fill="#fb923c" stroke="none" stroke-width="1" opacity="0.24000000000000002"></rect>
            <rect x="906" y="963.4" width="180" height="36.6" rx="12" fill="none" stroke="#fb923c" stroke-width="2" opacity="0.85"></rect>
            <rect x="918" y="975.4" width="90" height="8" rx="4" fill="#1c2030" stroke="none" stroke-width="1" opacity="0.9"></rect>
            <rect x="918" y="991.4" width="60" height="14" rx="5" fill="#1c2030" stroke="none" stroke-width="1" opacity="1"></rect>
            <rect x="918" y="1006" width="60" height="6" rx="3" fill="#5b6175" stroke="none" stroke-width="1" opacity="1"></rect>
            
          
    </svg>