<svg xmlns="http://www.w3.org/2000/svg" viewBox="0 0 1200 1200" preserveAspectRatio="xMidYMid slice">
  <defs>
    <pattern id="dots-theme" x="0" y="0" width="14" height="14" patternUnits="userSpaceOnUse">
      <circle cx="2" cy="2" r="1" fill="#1c2030" opacity="0.10" />
    </pattern>
    <pattern id="grid-theme" x="0" y="0" width="40" height="40" patternUnits="userSpaceOnUse">
      <path d="M40 0 L0 0 0 40" fill="none" stroke="#1c2030" stroke-width="0.6" opacity="0.08" />
    </pattern>
    <pattern id="hatch-theme" x="0" y="0" width="6" height="6" patternUnits="userSpaceOnUse" patternTransform="rotate(45)">
      <line x1="0" y1="0" x2="0" y2="6" stroke="#8b5cf6" stroke-width="2" opacity="0.55" />
    </pattern>
    <linearGradient id="paper-theme" x1="0" y1="0" x2="0" y2="1">
      <stop offset="0" stop-color="#ffffff" />
      <stop offset="1" stop-color="#f8f3e8" />
    </linearGradient>
    <linearGradient id="accent-theme" x1="0" y1="0" x2="1" y2="1">
      <stop offset="0" stop-color="#8b5cf6" stop-opacity="0.95" />
      <stop offset="1" stop-color="#8b5cf6" stop-opacity="0.55" />
    </linearGradient>
    <filter id="grain-theme">
      <feTurbulence type="fractalNoise" baseFrequency="0.9" numOctaves="2" stitchTiles="stitch" />
      <feColorMatrix values="0 0 0 0 0 0 0 0 0 0 0 0 0 0 0 0 0 0 0.08 0" />
      <feComposite in2="SourceGraphic" operator="in" />
    </filter>
  </defs>

  <rect width="1200" height="1200" fill="transparent" />
  <rect width="1200" height="1200" fill="none" />
  <rect x="82" y="128" width="1040" height="960" rx="22" fill="rgba(28,32,48,0.08)" />
  <rect x="80" y="120" width="1040" height="960" rx="22" fill="#ffffff" stroke="#d9d2c2" stroke-width="1" />

  <rect x="80" y="120" width="1040" height="56" rx="22" fill="#f3eee2" />
  <rect x="80" y="156" width="1040" height="20" fill="#f3eee2" />
  <circle cx="116" cy="148" r="6" fill="#d9d2c2" />
  <circle cx="136" cy="148" r="6" fill="#d9d2c2" />
  <circle cx="156" cy="148" r="6" fill="#d9d2c2" />
  <rect x="950" y="138" width="100" height="22" rx="11" fill="#8b5cf6" opacity="0.9" />

  <rect x="80" y="176" width="280" height="904" fill="#fbf8f1" />
  <line x1="360" y1="176" x2="360" y2="1080" stroke="#d9d2c2" stroke-width="1" stroke-linecap="round" />

  <rect x="100" y="210" width="240" height="28" rx="6" fill="#efe7d3" />

  <rect x="100" y="260" width="240" height="56" rx="10" fill="#ffffff" stroke="#8b5cf6" stroke-width="2" />
  <rect x="116" y="280" width="16" height="16" rx="3" fill="#8b5cf6" />
  <rect x="144" y="282" width="130" height="8" rx="4" fill="#1c2030" opacity="0.8" />
  <rect x="144" y="298" width="80" height="6" rx="3" fill="#9ba2b3" />

  <rect x="100" y="330" width="240" height="56" rx="10" fill="#ffffff" stroke="#d9d2c2" stroke-width="1" />
  <rect x="116" y="350" width="16" height="16" rx="3" fill="#9ba2b3" />
  <rect x="144" y="352" width="110" height="8" rx="4" fill="#1c2030" opacity="0.7" />
  <rect x="144" y="368" width="70" height="6" rx="3" fill="#9ba2b3" />

  <rect x="100" y="400" width="240" height="56" rx="10" fill="#ffffff" stroke="#d9d2c2" stroke-width="1" />
  <rect x="116" y="420" width="16" height="16" rx="3" fill="#9ba2b3" />
  <rect x="144" y="422" width="140" height="8" rx="4" fill="#1c2030" opacity="0.7" />
  <rect x="144" y="438" width="60" height="6" rx="3" fill="#9ba2b3" />

  <rect x="100" y="470" width="240" height="56" rx="10" fill="#ffffff" stroke="#d9d2c2" stroke-width="1" />
  <rect x="116" y="490" width="16" height="16" rx="3" fill="#9ba2b3" />
  <rect x="144" y="492" width="100" height="8" rx="4" fill="#1c2030" opacity="0.7" />
  <rect x="144" y="508" width="90" height="6" rx="3" fill="#9ba2b3" />

  <rect x="100" y="540" width="240" height="56" rx="10" fill="#ffffff" stroke="#d9d2c2" stroke-width="1" />
  <rect x="116" y="560" width="16" height="16" rx="3" fill="#9ba2b3" />
  <rect x="144" y="562" width="90" height="8" rx="4" fill="#1c2030" opacity="0.7" />
  <rect x="144" y="578" width="110" height="6" rx="3" fill="#9ba2b3" />

  <rect x="100" y="620" width="240" height="40" rx="8" fill="none" stroke="#d9d2c2" stroke-width="1" />
  <line x1="204" y1="640" x2="236" y2="640" stroke="#5b6175" stroke-width="1.5" stroke-linecap="round" />
  <line x1="220" y1="624" x2="220" y2="656" stroke="#5b6175" stroke-width="1.5" stroke-linecap="round" />

  <rect x="390" y="200" width="460" height="860" rx="28" fill="#1f2538" />
  <rect x="410" y="230" width="420" height="800" rx="14" fill="#ffffff" />

  <rect x="410" y="230" width="420" height="110" rx="14" fill="#8b5cf6" opacity="0.18" />
  <rect x="410" y="320" width="420" height="20" fill="#8b5cf6" opacity="0.18" />
  <circle cx="620" cy="290" r="38" fill="#8b5cf6" />
  <rect x="440" y="360" width="360" height="14" rx="7" fill="#1c2030" opacity="0.85" />
  <rect x="440" y="384" width="280" height="8" rx="4" fill="#9ba2b3" />
  <rect x="440" y="400" width="240" height="8" rx="4" fill="#9ba2b3" />

  <rect x="440" y="440" width="170" height="170" rx="10" fill="#efe7d3" />
  <circle cx="525" cy="525" r="40" fill="#8b5cf6" opacity="0.7" />
  <rect x="630" y="440" width="170" height="170" rx="10" fill="#efe7d3" />
  <rect x="680" y="480" width="70" height="90" rx="8" fill="#1c2030" opacity="0.7" />

  <rect x="440" y="630" width="360" height="14" rx="7" fill="#1c2030" opacity="0.85" />
  <rect x="440" y="654" width="280" height="8" rx="4" fill="#9ba2b3" />
  <rect x="440" y="670" width="220" height="8" rx="4" fill="#9ba2b3" />

  <rect x="440" y="700" width="170" height="110" rx="10" fill="#fbf8f1" stroke="#d9d2c2" stroke-width="1" />
  <circle cx="490" cy="740" r="14" fill="#8b5cf6" />
  <rect x="440" y="830" width="170" height="110" rx="10" fill="#fbf8f1" stroke="#d9d2c2" stroke-width="1" />
  <rect x="630" y="700" width="170" height="110" rx="10" fill="#fbf8f1" stroke="#d9d2c2" stroke-width="1" />
  <rect x="630" y="830" width="170" height="110" rx="10" fill="#fbf8f1" stroke="#d9d2c2" stroke-width="1" />

  <rect x="396" y="216" width="448" height="138" rx="10" fill="none" stroke="#8b5cf6" stroke-width="3" />
  <circle cx="396" cy="216" r="6" fill="#8b5cf6" stroke="#ffffff" stroke-width="2" />
  <circle cx="844" cy="216" r="6" fill="#8b5cf6" stroke="#ffffff" stroke-width="2" />
  <circle cx="396" cy="354" r="6" fill="#8b5cf6" stroke="#ffffff" stroke-width="2" />
  <circle cx="844" cy="354" r="6" fill="#8b5cf6" stroke="#ffffff" stroke-width="2" />

  <rect x="880" y="176" width="240" height="904" fill="#fbf8f1" />
  <rect x="900" y="210" width="200" height="28" rx="6" fill="#efe7d3" />

  <rect x="900" y="270" width="200" height="14" rx="4" fill="#9ba2b3" />
  <rect x="900" y="296" width="200" height="36" rx="8" fill="#ffffff" stroke="#d9d2c2" stroke-width="1" />
  <rect x="900" y="350" width="200" height="14" rx="4" fill="#9ba2b3" />
  <rect x="900" y="376" width="200" height="36" rx="8" fill="#ffffff" stroke="#d9d2c2" stroke-width="1" />

  <rect x="900" y="440" width="200" height="14" rx="4" fill="#9ba2b3" />
  <circle cx="914" cy="480" r="14" fill="#8b5cf6" />
  <circle cx="948" cy="480" r="14" fill="#1c2030" />
  <circle cx="982" cy="480" r="14" fill="#efe7d3" stroke="#d9d2c2" stroke-width="1" />
  <circle cx="1016" cy="480" r="14" fill="#9ba2b3" />
  <circle cx="1050" cy="480" r="14" fill="none" stroke="#d9d2c2" stroke-width="1" />

  <rect x="900" y="530" width="200" height="14" rx="4" fill="#9ba2b3" />
  <rect x="900" y="556" width="56" height="28" rx="14" fill="#8b5cf6" />
  <circle cx="942" cy="570" r="10" fill="#ffffff" />
  <rect x="976" y="564" width="124" height="8" rx="4" fill="#1c2030" opacity="0.7" />
  <rect x="976" y="578" width="90" height="6" rx="3" fill="#9ba2b3" />

  <rect x="900" y="600" width="56" height="28" rx="14" fill="#e3dccd" />
  <circle cx="914" cy="614" r="10" fill="#ffffff" />
  <rect x="976" y="608" width="100" height="8" rx="4" fill="#1c2030" opacity="0.7" />
  <rect x="976" y="622" width="70" height="6" rx="3" fill="#9ba2b3" />

  <rect x="900" y="680" width="200" height="14" rx="4" fill="#9ba2b3" />
  <rect x="900" y="712" width="200" height="4" rx="2" fill="#d9d2c2" />
  <rect x="900" y="712" width="130" height="4" rx="2" fill="#8b5cf6" />
  <circle cx="1030" cy="714" r="10" fill="#8b5cf6" stroke="#ffffff" stroke-width="3" />

  <rect x="900" y="760" width="200" height="14" rx="4" fill="#9ba2b3" />
  <rect x="900" y="786" width="200" height="4" rx="2" fill="#d9d2c2" />
  <rect x="900" y="786" width="70" height="4" rx="2" fill="#8b5cf6" />
  <circle cx="970" cy="788" r="10" fill="#8b5cf6" stroke="#ffffff" stroke-width="3" />

  <rect x="700" y="740" width="140" height="40" rx="8" fill="#1c2030" />
  <rect x="720" y="754" width="14" height="12" rx="2" fill="#8b5cf6" />
  <rect x="740" y="758" width="80" height="4" rx="2" fill="#ffffff" opacity="0.9" />
  <rect x="740" y="766" width="50" height="4" rx="2" fill="#ffffff" opacity="0.6" />
</svg>
