<svg xmlns="http://www.w3.org/2000/svg" viewBox="0 0 1200 1200" preserveAspectRatio="xMidYMid slice">
  <defs>
    <pattern id="dots-consult" x="0" y="0" width="14" height="14" patternUnits="userSpaceOnUse">
      <circle cx="2" cy="2" r="1" fill="#1c2030" opacity="0.10" />
    </pattern>
    <pattern id="grid-consult" x="0" y="0" width="40" height="40" patternUnits="userSpaceOnUse">
      <path d="M40 0 L0 0 0 40" fill="none" stroke="#1c2030" stroke-width="0.6" opacity="0.08" />
    </pattern>
    <pattern id="hatch-consult" x="0" y="0" width="6" height="6" patternUnits="userSpaceOnUse" patternTransform="rotate(45)">
      <line x1="0" y1="0" x2="0" y2="6" stroke="#14b8a6" stroke-width="2" opacity="0.55" />
    </pattern>
    <linearGradient id="paper-consult" x1="0" y1="0" x2="0" y2="1">
      <stop offset="0" stop-color="#ffffff" />
      <stop offset="1" stop-color="#f8f3e8" />
    </linearGradient>
    <linearGradient id="accent-consult" x1="0" y1="0" x2="1" y2="1">
      <stop offset="0" stop-color="#14b8a6" stop-opacity="0.95" />
      <stop offset="1" stop-color="#14b8a6" stop-opacity="0.55" />
    </linearGradient>
    <filter id="grain-consult">
      <feTurbulence type="fractalNoise" baseFrequency="0.9" numOctaves="2" stitchTiles="stitch" />
      <feColorMatrix values="0 0 0 0 0 0 0 0 0 0 0 0 0 0 0 0 0 0 0.08 0" />
      <feComposite in2="SourceGraphic" operator="in" />
    </filter>
  </defs>

  <rect width="1200" height="1200" fill="transparent" />
  <rect width="1200" height="1200" fill="none" />
  <rect x="122" y="168" width="960" height="680" rx="24" fill="rgba(28,32,48,0.08)" />
  <rect x="120" y="160" width="960" height="680" rx="24" fill="#ffffff" stroke="#d9d2c2" stroke-width="1" />

  <rect x="120" y="160" width="960" height="56" rx="24" fill="#f3eee2" />
  <rect x="120" y="196" width="960" height="20" fill="#f3eee2" />
  <circle cx="156" cy="188" r="6" fill="#d9d2c2" />
  <circle cx="176" cy="188" r="6" fill="#d9d2c2" />
  <circle cx="196" cy="188" r="6" fill="#d9d2c2" />
  <circle cx="1030" cy="188" r="8" fill="#14b8a6" />
  <rect x="1050" y="184" width="16" height="8" rx="2" fill="#9ba2b3" />

  <g>
    <rect x="160" y="250" width="440" height="540" rx="16" fill="#efe7d3" />
    <circle cx="380" cy="470" r="110" fill="#14b8a6" opacity="0.6" />
    <rect x="220" y="580" width="320" height="200" rx="100" fill="#1c2030" opacity="0.85" />
    <rect x="180" y="740" width="130" height="22" rx="6" fill="#1c2030" opacity="0.85" />
    <rect x="196" y="748" width="80" height="6" rx="3" fill="#ffffff" opacity="0.85" />
    <circle cx="560" cy="750" r="18" fill="#1c2030" />
    <rect x="556" y="740" width="8" height="14" rx="4" fill="#14b8a6" />
  </g>

  <g>
    <rect x="620" y="250" width="440" height="540" rx="16" fill="#fbe9d7" />
    <circle cx="840" cy="460" r="110" fill="#1c2030" opacity="0.85" />
    <rect x="680" y="570" width="320" height="220" rx="100" fill="#14b8a6" opacity="0.85" />
    <rect x="640" y="740" width="130" height="22" rx="6" fill="#1c2030" opacity="0.85" />
    <rect x="656" y="748" width="80" height="6" rx="3" fill="#ffffff" opacity="0.85" />
    <circle cx="1020" cy="750" r="18" fill="#fb7185" />
    <path
      d="M 1011 750 l 18 0 m -9 -9 l 0 18"
      fill="none"
      stroke="#ffffff"
      stroke-width="3"
      stroke-linecap="round"
      stroke-linejoin="round"
    />
  </g>

  <rect x="380" y="880" width="440" height="80" rx="40" fill="#1c2030" />
  <circle cx="440" cy="920" r="22" fill="#2a3147" />
  <rect x="430" y="910" width="20" height="10" rx="4" fill="#14b8a6" />
  <rect x="434" y="922" width="12" height="6" rx="2" fill="#ffffff" opacity="0.7" />
  <circle cx="510" cy="920" r="22" fill="#2a3147" />
  <rect x="498" y="908" width="24" height="18" rx="4" fill="#ffffff" opacity="0.85" />
  <path
    d="M 522 914 l 8 -4 l 0 20 l -8 -4 z"
    fill="#ffffff"
    stroke-linecap="round"
    stroke-linejoin="round"
    opacity="0.85"
  />
  <circle cx="580" cy="920" r="22" fill="#2a3147" />
  <rect x="570" y="908" width="20" height="18" rx="6" fill="#ffffff" opacity="0.85" />
  <rect x="650" y="898" width="60" height="44" rx="22" fill="#fb7185" />
  <path
    d="M 668 916 q 12 8 24 0"
    fill="none"
    stroke="#ffffff"
    stroke-width="3"
    stroke-linecap="round"
    stroke-linejoin="round"
  />
  <circle cx="750" cy="920" r="22" fill="#2a3147" />
  <circle cx="744" cy="914" r="4" fill="#ffffff" />
  <circle cx="756" cy="914" r="4" fill="#ffffff" />
  <circle cx="750" cy="926" r="4" fill="#ffffff" />

  <rect x="960" y="880" width="220" height="90" rx="18" fill="#ffffff" stroke="#d9d2c2" stroke-width="1" />
  <path
    d="M 980 970 l 20 -10 l 0 20 z"
    fill="#ffffff"
    stroke="#d9d2c2"
    stroke-width="1"
    stroke-linecap="round"
    stroke-linejoin="round"
  />
  <rect x="980" y="900" width="60" height="8" rx="4" fill="#14b8a6" />
  <rect x="980" y="916" width="180" height="6" rx="3" fill="#9ba2b3" />
  <rect x="980" y="930" width="140" height="6" rx="3" fill="#9ba2b3" />
  <rect x="980" y="944" width="120" height="6" rx="3" fill="#9ba2b3" />

  <circle cx="80" cy="920" r="50" fill="#ffffff" stroke="#d9d2c2" stroke-width="1" />
  <line x1="80" y1="920" x2="80" y2="888" stroke="#1c2030" stroke-width="4" stroke-linecap="round" />
  <line x1="80" y1="920" x2="100" y2="920" stroke="#14b8a6" stroke-width="4" stroke-linecap="round" />
  <circle cx="80" cy="920" r="4" fill="#1c2030" />
</svg>
