<svg xmlns="http://www.w3.org/2000/svg" viewBox="0 0 1200 1200" preserveAspectRatio="xMidYMid slice">
  <defs>
    <pattern id="dots-r11" x="0" y="0" width="14" height="14" patternUnits="userSpaceOnUse">
      <circle cx="2" cy="2" r="1" fill="#1c2030" opacity="0.10" />
    </pattern>
    <pattern id="grid-r11" x="0" y="0" width="40" height="40" patternUnits="userSpaceOnUse">
      <path d="M40 0 L0 0 0 40" fill="none" stroke="#1c2030" stroke-width="0.6" opacity="0.08" />
    </pattern>
    <pattern id="hatch-r11" x="0" y="0" width="6" height="6" patternUnits="userSpaceOnUse" patternTransform="rotate(45)">
      <line x1="0" y1="0" x2="0" y2="6" stroke="#34d399" stroke-width="2" opacity="0.55" />
    </pattern>
    <linearGradient id="paper-r11" x1="0" y1="0" x2="0" y2="1">
      <stop offset="0" stop-color="#ffffff" />
      <stop offset="1" stop-color="#f8f3e8" />
    </linearGradient>
    <linearGradient id="accent-r11" x1="0" y1="0" x2="1" y2="1">
      <stop offset="0" stop-color="#34d399" stop-opacity="0.95" />
      <stop offset="1" stop-color="#34d399" stop-opacity="0.55" />
    </linearGradient>
    <filter id="grain-r11">
      <feTurbulence type="fractalNoise" baseFrequency="0.9" numOctaves="2" stitchTiles="stitch" />
      <feColorMatrix values="0 0 0 0 0 0 0 0 0 0 0 0 0 0 0 0 0 0 0.08 0" />
      <feComposite in2="SourceGraphic" operator="in" />
    </filter>
  </defs>

  <rect width="1200" height="1200" fill="transparent" />
  <rect width="1200" height="1200" fill="none" />
  <rect x="122" y="208" width="520" height="720" rx="22" fill="rgba(28,32,48,0.08)" />
  <rect x="120" y="200" width="520" height="720" rx="22" fill="#ffffff" stroke="#d9d2c2" stroke-width="1" />
  <rect x="120" y="200" width="520" height="80" rx="22" fill="#34d399" opacity="0.85" />
  <rect x="120" y="248" width="520" height="32" fill="#34d399" opacity="0.85" />
  <rect x="150" y="230" width="100" height="14" rx="7" fill="#ffffff" />
  <rect x="560" y="226" width="60" height="22" rx="11" fill="#ffffff" opacity="0.3" />

  <rect x="150" y="300" width="36" height="10" rx="5" fill="#9ba2b3" />
  <rect x="214" y="300" width="36" height="10" rx="5" fill="#9ba2b3" />
  <rect x="278" y="300" width="36" height="10" rx="5" fill="#9ba2b3" />
  <rect x="342" y="300" width="36" height="10" rx="5" fill="#9ba2b3" />
  <rect x="406" y="300" width="36" height="10" rx="5" fill="#9ba2b3" />
  <rect x="470" y="300" width="36" height="10" rx="5" fill="#9ba2b3" />
  <rect x="534" y="300" width="36" height="10" rx="5" fill="#9ba2b3" />

  <rect x="140" y="332" width="56" height="56" rx="8" fill="#efe7d3" stroke="#d9d2c2" stroke-width="1" />
  <rect x="150" y="342" width="24" height="8" rx="4" fill="#1c2030" opacity="0.7" />
  <rect x="204" y="332" width="56" height="56" rx="8" fill="#ffffff" stroke="#d9d2c2" stroke-width="1" />
  <rect x="214" y="342" width="24" height="8" rx="4" fill="#1c2030" opacity="0.7" />
  <rect x="268" y="332" width="56" height="56" rx="8" fill="#ffffff" stroke="#d9d2c2" stroke-width="1" />
  <rect x="278" y="342" width="24" height="8" rx="4" fill="#1c2030" opacity="0.7" />
  <rect x="332" y="332" width="56" height="56" rx="8" fill="#34d399" opacity="0.85" />
  <rect x="342" y="342" width="24" height="8" rx="4" fill="#ffffff" opacity="0.85" />
  <circle cx="376" cy="344" r="4" fill="#ffffff" />
  <rect x="396" y="332" width="56" height="56" rx="8" fill="#ffffff" stroke="#d9d2c2" stroke-width="1" />
  <rect x="406" y="342" width="24" height="8" rx="4" fill="#1c2030" opacity="0.7" />
  <rect x="460" y="332" width="56" height="56" rx="8" fill="#ffffff" stroke="#d9d2c2" stroke-width="1" />
  <rect x="470" y="342" width="24" height="8" rx="4" fill="#1c2030" opacity="0.7" />
  <rect x="524" y="332" width="56" height="56" rx="8" fill="#efe7d3" stroke="#d9d2c2" stroke-width="1" />
  <rect x="534" y="342" width="24" height="8" rx="4" fill="#1c2030" opacity="0.7" />

  <rect x="140" y="404" width="56" height="56" rx="8" fill="#efe7d3" stroke="#d9d2c2" stroke-width="1" />
  <rect x="150" y="414" width="24" height="8" rx="4" fill="#1c2030" opacity="0.7" />
  <rect x="204" y="404" width="56" height="56" rx="8" fill="#ffffff" stroke="#d9d2c2" stroke-width="1" />
  <rect x="214" y="414" width="24" height="8" rx="4" fill="#1c2030" opacity="0.7" />
  <rect x="268" y="404" width="56" height="56" rx="8" fill="#ffffff" stroke="#d9d2c2" stroke-width="1" />
  <rect x="278" y="414" width="24" height="8" rx="4" fill="#1c2030" opacity="0.7" />
  <rect x="332" y="404" width="56" height="56" rx="8" fill="#34d399" opacity="0.85" />
  <rect x="342" y="414" width="24" height="8" rx="4" fill="#ffffff" opacity="0.85" />
  <circle cx="376" cy="416" r="4" fill="#ffffff" />
  <rect x="396" y="404" width="56" height="56" rx="8" fill="#ffffff" stroke="#d9d2c2" stroke-width="1" />
  <rect x="406" y="414" width="24" height="8" rx="4" fill="#1c2030" opacity="0.7" />
  <rect x="460" y="404" width="56" height="56" rx="8" fill="#ffffff" stroke="#d9d2c2" stroke-width="1" />
  <rect x="470" y="414" width="24" height="8" rx="4" fill="#1c2030" opacity="0.7" />
  <rect x="524" y="404" width="56" height="56" rx="8" fill="#efe7d3" stroke="#d9d2c2" stroke-width="1" />
  <rect x="534" y="414" width="24" height="8" rx="4" fill="#1c2030" opacity="0.7" />

  <rect x="140" y="476" width="56" height="56" rx="8" fill="#efe7d3" stroke="#d9d2c2" stroke-width="1" />
  <rect x="150" y="486" width="24" height="8" rx="4" fill="#1c2030" opacity="0.7" />
  <rect x="204" y="476" width="56" height="56" rx="8" fill="#ffffff" stroke="#d9d2c2" stroke-width="1" />
  <rect x="214" y="486" width="24" height="8" rx="4" fill="#1c2030" opacity="0.7" />
  <rect x="268" y="476" width="56" height="56" rx="8" fill="#ffffff" stroke="#d9d2c2" stroke-width="1" />
  <rect x="278" y="486" width="24" height="8" rx="4" fill="#1c2030" opacity="0.7" />
  <rect x="332" y="476" width="56" height="56" rx="8" fill="#34d399" stroke="#1c2030" stroke-width="3" opacity="0.85" />
  <rect x="342" y="486" width="24" height="8" rx="4" fill="#ffffff" opacity="0.85" />
  <circle cx="376" cy="488" r="4" fill="#ffffff" />
  <rect x="396" y="476" width="56" height="56" rx="8" fill="#ffffff" stroke="#d9d2c2" stroke-width="1" />
  <rect x="406" y="486" width="24" height="8" rx="4" fill="#1c2030" opacity="0.7" />
  <rect x="460" y="476" width="56" height="56" rx="8" fill="#ffffff" stroke="#d9d2c2" stroke-width="1" />
  <rect x="470" y="486" width="24" height="8" rx="4" fill="#1c2030" opacity="0.7" />
  <rect x="524" y="476" width="56" height="56" rx="8" fill="#efe7d3" stroke="#d9d2c2" stroke-width="1" />
  <rect x="534" y="486" width="24" height="8" rx="4" fill="#1c2030" opacity="0.7" />

  <rect x="140" y="548" width="56" height="56" rx="8" fill="#efe7d3" stroke="#d9d2c2" stroke-width="1" />
  <rect x="150" y="558" width="24" height="8" rx="4" fill="#1c2030" opacity="0.7" />
  <rect x="204" y="548" width="56" height="56" rx="8" fill="#ffffff" stroke="#d9d2c2" stroke-width="1" />
  <rect x="214" y="558" width="24" height="8" rx="4" fill="#1c2030" opacity="0.7" />
  <rect x="268" y="548" width="56" height="56" rx="8" fill="#ffffff" stroke="#d9d2c2" stroke-width="1" />
  <rect x="278" y="558" width="24" height="8" rx="4" fill="#1c2030" opacity="0.7" />
  <rect x="332" y="548" width="56" height="56" rx="8" fill="#34d399" opacity="0.85" />
  <rect x="342" y="558" width="24" height="8" rx="4" fill="#ffffff" opacity="0.85" />
  <circle cx="376" cy="560" r="4" fill="#ffffff" />
  <rect x="396" y="548" width="56" height="56" rx="8" fill="#ffffff" stroke="#d9d2c2" stroke-width="1" />
  <rect x="406" y="558" width="24" height="8" rx="4" fill="#1c2030" opacity="0.7" />
  <rect x="460" y="548" width="56" height="56" rx="8" fill="#ffffff" stroke="#d9d2c2" stroke-width="1" />
  <rect x="470" y="558" width="24" height="8" rx="4" fill="#1c2030" opacity="0.7" />
  <rect x="524" y="548" width="56" height="56" rx="8" fill="#efe7d3" stroke="#d9d2c2" stroke-width="1" />
  <rect x="534" y="558" width="24" height="8" rx="4" fill="#1c2030" opacity="0.7" />

  <rect x="140" y="620" width="56" height="56" rx="8" fill="#efe7d3" stroke="#d9d2c2" stroke-width="1" />
  <rect x="150" y="630" width="24" height="8" rx="4" fill="#1c2030" opacity="0.7" />
  <rect x="204" y="620" width="56" height="56" rx="8" fill="#ffffff" stroke="#d9d2c2" stroke-width="1" />
  <rect x="214" y="630" width="24" height="8" rx="4" fill="#1c2030" opacity="0.7" />
  <rect x="268" y="620" width="56" height="56" rx="8" fill="#ffffff" stroke="#d9d2c2" stroke-width="1" />
  <rect x="278" y="630" width="24" height="8" rx="4" fill="#1c2030" opacity="0.7" />
  <rect x="332" y="620" width="56" height="56" rx="8" fill="#34d399" opacity="0.85" />
  <rect x="342" y="630" width="24" height="8" rx="4" fill="#ffffff" opacity="0.85" />
  <circle cx="376" cy="632" r="4" fill="#ffffff" />
  <rect x="396" y="620" width="56" height="56" rx="8" fill="#ffffff" stroke="#d9d2c2" stroke-width="1" />
  <rect x="406" y="630" width="24" height="8" rx="4" fill="#1c2030" opacity="0.7" />
  <rect x="460" y="620" width="56" height="56" rx="8" fill="#ffffff" stroke="#d9d2c2" stroke-width="1" />
  <rect x="470" y="630" width="24" height="8" rx="4" fill="#1c2030" opacity="0.7" />
  <rect x="524" y="620" width="56" height="56" rx="8" fill="#efe7d3" stroke="#d9d2c2" stroke-width="1" />
  <rect x="534" y="630" width="24" height="8" rx="4" fill="#1c2030" opacity="0.7" />

  <circle cx="150" cy="730" r="8" fill="#34d399" />
  <rect x="168" y="726" width="200" height="8" rx="4" fill="#1c2030" opacity="0.7" />
  <rect x="168" y="740" width="140" height="6" rx="3" fill="#9ba2b3" />
  <circle cx="150" cy="770" r="8" fill="none" stroke="#1c2030" stroke-width="2" />
  <rect x="168" y="766" width="180" height="8" rx="4" fill="#1c2030" opacity="0.7" />
  <rect x="168" y="780" width="100" height="6" rx="3" fill="#9ba2b3" />

  <rect x="150" y="820" width="460" height="60" rx="12" fill="#efe7d3" />
  <circle cx="180" cy="850" r="18" fill="#34d399" />
  <path
    d="M 178 850 q 8 -10 16 0"
    fill="none"
    stroke="#ffffff"
    stroke-width="3"
    stroke-linecap="round"
    stroke-linejoin="round"
  />
  <path d="M 188 856 l 6 -6 l -2 8 z" fill="#ffffff" />
  <rect x="218" y="838" width="200" height="10" rx="5" fill="#1c2030" opacity="0.85" />
  <rect x="218" y="856" width="280" height="6" rx="3" fill="#9ba2b3" />

  <rect x="682" y="208" width="400" height="360" rx="22" fill="rgba(28,32,48,0.08)" />
  <rect x="680" y="200" width="400" height="360" rx="22" fill="#ffffff" stroke="#d9d2c2" stroke-width="1" />
  <rect x="700" y="230" width="80" height="22" rx="11" fill="#34d399" opacity="0.18" />
  <rect x="720" y="240" width="40" height="4" rx="2" fill="#34d399" />
  <rect x="700" y="270" width="280" height="18" rx="6" fill="#1c2030" />
  <rect x="700" y="296" width="200" height="10" rx="5" fill="#9ba2b3" />
  <rect x="700" y="312" width="240" height="10" rx="5" fill="#9ba2b3" />

  <g transform="translate(820, 410)">
    <path
      d="M -60 0 a 60 60 0 1 1 120 0 a 60 60 0 1 1 -120 0"
      fill="none"
      stroke="#34d399"
      stroke-width="8"
      stroke-linecap="round"
      stroke-linejoin="round"
    />
    <path d="M 60 -10 l 16 10 l -16 10 z" fill="#34d399" />
    <path d="M -60 10 l -16 -10 l 16 -10 z" fill="#34d399" />
    <rect x="-30" y="-30" width="60" height="60" rx="8" fill="#1c2030" />
    <rect x="-18" y="-14" width="36" height="6" rx="3" fill="#34d399" />
    <rect x="-18" y="-2" width="28" height="4" rx="2" fill="#ffffff" opacity="0.6" />
    <rect x="-18" y="8" width="36" height="4" rx="2" fill="#ffffff" opacity="0.6" />
  </g>

  <rect x="682" y="608" width="400" height="320" rx="22" fill="rgba(28,32,48,0.08)" />
  <rect x="680" y="600" width="400" height="320" rx="22" fill="#ffffff" stroke="#d9d2c2" stroke-width="1" />
  <rect x="700" y="620" width="100" height="10" rx="5" fill="#9ba2b3" />
  <rect x="700" y="640" width="180" height="22" rx="6" fill="#1c2030" />

  <g transform="translate(880, 720)">
    <circle cx="0" cy="0" r="80" fill="none" stroke="#d9d2c2" stroke-width="16" />
    <path
      d="M 0 -80 A 80 80 0 0 1 76 24"
      fill="none"
      stroke="#34d399"
      stroke-width="16"
      stroke-linecap="round"
      stroke-linejoin="round"
    />
    <rect x="-40" y="-8" width="80" height="6" rx="3" fill="#1c2030" opacity="0.85" />
    <rect x="-30" y="8" width="60" height="4" rx="2" fill="#9ba2b3" />
  </g>

  <rect x="700" y="820" width="22" height="60" rx="4" fill="#d9d2c2" />
  <rect x="730" y="800" width="22" height="80" rx="4" fill="#d9d2c2" />
  <rect x="760" y="830" width="22" height="50" rx="4" fill="#d9d2c2" />
  <rect x="790" y="810" width="22" height="70" rx="4" fill="#d9d2c2" />
  <rect x="820" y="790" width="22" height="90" rx="4" fill="#34d399" />
  <rect x="850" y="805" width="22" height="75" rx="4" fill="#d9d2c2" />
</svg>
