<svg xmlns="http://www.w3.org/2000/svg" viewBox="0 0 1200 1200" preserveAspectRatio="xMidYMid slice">
  <defs>
    <pattern id="dots-plan" x="0" y="0" width="14" height="14" patternUnits="userSpaceOnUse">
      <circle cx="2" cy="2" r="1" fill="#1c2030" opacity="0.10" />
    </pattern>
    <pattern id="grid-plan" x="0" y="0" width="40" height="40" patternUnits="userSpaceOnUse">
      <path d="M40 0 L0 0 0 40" fill="none" stroke="#1c2030" stroke-width="0.6" opacity="0.08" />
    </pattern>
    <pattern id="hatch-plan" x="0" y="0" width="6" height="6" patternUnits="userSpaceOnUse" patternTransform="rotate(45)">
      <line x1="0" y1="0" x2="0" y2="6" stroke="#fb7185" stroke-width="2" opacity="0.55" />
    </pattern>
    <linearGradient id="paper-plan" x1="0" y1="0" x2="0" y2="1">
      <stop offset="0" stop-color="#ffffff" />
      <stop offset="1" stop-color="#f8f3e8" />
    </linearGradient>
    <linearGradient id="accent-plan" x1="0" y1="0" x2="1" y2="1">
      <stop offset="0" stop-color="#fb7185" stop-opacity="0.95" />
      <stop offset="1" stop-color="#fb7185" stop-opacity="0.55" />
    </linearGradient>
    <filter id="grain-plan">
      <feTurbulence type="fractalNoise" baseFrequency="0.9" numOctaves="2" stitchTiles="stitch" />
      <feColorMatrix values="0 0 0 0 0 0 0 0 0 0 0 0 0 0 0 0 0 0 0.08 0" />
      <feComposite in2="SourceGraphic" operator="in" />
    </filter>
  </defs>

  <rect width="1200" height="1200" fill="transparent" />
  <rect width="1200" height="1200" fill="none" />
  <rect x="80" y="120" width="1040" height="960" rx="22" fill="#ffffff" stroke="#d9d2c2" stroke-width="1" />
  <rect x="80" y="120" width="1040" height="960" rx="22" fill="url(#dots-plan)" opacity="0.6" />

  <rect x="120" y="170" width="290" height="36" rx="8" fill="#1c2030" opacity="0.9" />
  <rect x="450" y="170" width="290" height="36" rx="8" fill="#fb7185" opacity="0.85" />
  <rect x="780" y="170" width="290" height="36" rx="8" fill="#efe7d3" stroke="#d9d2c2" stroke-width="1" />
  <rect x="140" y="184" width="100" height="8" rx="4" fill="#ffffff" opacity="0.85" />
  <rect x="470" y="184" width="110" height="8" rx="4" fill="#ffffff" opacity="0.85" />
  <rect x="800" y="184" width="90" height="8" rx="4" fill="#1c2030" opacity="0.7" />

  <rect x="124" y="240" width="282" height="160" rx="6" fill="#fff8d6" stroke="#eadf9e" stroke-width="1" opacity="0.9" />
  <rect x="140" y="258" width="180" height="10" rx="5" fill="#1c2030" opacity="0.85" />
  <rect x="140" y="278" width="240" height="6" rx="3" fill="#9ba2b3" />
  <rect x="140" y="292" width="200" height="6" rx="3" fill="#9ba2b3" />
  <rect x="140" y="314" width="60" height="22" rx="11" fill="#fb7185" opacity="0.18" />
  <rect x="140" y="346" width="220" height="6" rx="3" fill="#9ba2b3" />
  <rect x="140" y="360" width="180" height="6" rx="3" fill="#9ba2b3" />
  <circle cx="360" cy="368" r="14" fill="#1c2030" opacity="0.7" />

  <rect x="124" y="420" width="282" height="160" rx="6" fill="#fff8d6" stroke="#eadf9e" stroke-width="1" opacity="0.9" />
  <rect x="140" y="438" width="180" height="10" rx="5" fill="#1c2030" opacity="0.85" />
  <rect x="140" y="458" width="240" height="6" rx="3" fill="#9ba2b3" />
  <rect x="140" y="472" width="200" height="6" rx="3" fill="#9ba2b3" />
  <rect x="140" y="494" width="60" height="22" rx="11" fill="#fb7185" opacity="0.18" />
  <rect x="140" y="526" width="220" height="6" rx="3" fill="#9ba2b3" />
  <rect x="140" y="540" width="180" height="6" rx="3" fill="#9ba2b3" />
  <circle cx="360" cy="548" r="14" fill="#1c2030" opacity="0.7" />

  <rect x="124" y="600" width="282" height="160" rx="6" fill="#fff8d6" stroke="#eadf9e" stroke-width="1" opacity="0.9" />
  <rect x="140" y="618" width="180" height="10" rx="5" fill="#1c2030" opacity="0.85" />
  <rect x="140" y="638" width="240" height="6" rx="3" fill="#9ba2b3" />
  <rect x="140" y="652" width="200" height="6" rx="3" fill="#9ba2b3" />
  <rect x="140" y="674" width="60" height="22" rx="11" fill="#fb7185" opacity="0.18" />
  <rect x="140" y="706" width="220" height="6" rx="3" fill="#9ba2b3" />
  <rect x="140" y="720" width="180" height="6" rx="3" fill="#9ba2b3" />
  <circle cx="360" cy="728" r="14" fill="#1c2030" opacity="0.7" />

  <rect x="454" y="240" width="282" height="160" rx="6" fill="#ffffff" stroke="#d9d2c2" stroke-width="1" />
  <rect x="470" y="258" width="160" height="10" rx="5" fill="#1c2030" opacity="0.85" />
  <rect x="470" y="278" width="220" height="6" rx="3" fill="#9ba2b3" />
  <rect x="470" y="292" width="200" height="6" rx="3" fill="#9ba2b3" />
  <rect x="470" y="316" width="250" height="8" rx="4" fill="#efe7d3" />
  <rect x="470" y="316" width="100" height="8" rx="4" fill="#fb7185" />
  <rect x="470" y="338" width="60" height="22" rx="11" fill="#efe7d3" />
  <rect x="540" y="338" width="60" height="22" rx="11" fill="#fb7185" opacity="0.18" />
  <circle cx="700" cy="368" r="14" fill="#fb7185" opacity="0.85" />

  <rect x="454" y="420" width="282" height="160" rx="6" fill="#ffffff" stroke="#d9d2c2" stroke-width="1" />
  <rect x="470" y="438" width="160" height="10" rx="5" fill="#1c2030" opacity="0.85" />
  <rect x="470" y="458" width="220" height="6" rx="3" fill="#9ba2b3" />
  <rect x="470" y="472" width="200" height="6" rx="3" fill="#9ba2b3" />
  <rect x="470" y="496" width="250" height="8" rx="4" fill="#efe7d3" />
  <rect x="470" y="496" width="150" height="8" rx="4" fill="#fb7185" />
  <rect x="470" y="518" width="60" height="22" rx="11" fill="#efe7d3" />
  <rect x="540" y="518" width="60" height="22" rx="11" fill="#fb7185" opacity="0.18" />
  <circle cx="700" cy="548" r="14" fill="#fb7185" opacity="0.85" />

  <rect x="454" y="600" width="282" height="160" rx="6" fill="#ffffff" stroke="#d9d2c2" stroke-width="1" />
  <rect x="470" y="618" width="160" height="10" rx="5" fill="#1c2030" opacity="0.85" />
  <rect x="470" y="638" width="220" height="6" rx="3" fill="#9ba2b3" />
  <rect x="470" y="652" width="200" height="6" rx="3" fill="#9ba2b3" />
  <rect x="470" y="676" width="250" height="8" rx="4" fill="#efe7d3" />
  <rect x="470" y="676" width="200" height="8" rx="4" fill="#fb7185" />
  <rect x="470" y="698" width="60" height="22" rx="11" fill="#efe7d3" />
  <rect x="540" y="698" width="60" height="22" rx="11" fill="#fb7185" opacity="0.18" />
  <circle cx="700" cy="728" r="14" fill="#fb7185" opacity="0.85" />

  <rect x="784" y="240" width="282" height="160" rx="6" fill="#dff5e8" stroke="#b6deca" stroke-width="1" opacity="0.9" />
  <rect x="800" y="258" width="140" height="10" rx="5" fill="#1c2030" opacity="0.85" />
  <rect x="800" y="278" width="200" height="6" rx="3" fill="#9ba2b3" />
  <rect x="800" y="292" width="160" height="6" rx="3" fill="#9ba2b3" />
  <rect x="800" y="316" width="60" height="22" rx="11" fill="#1c2030" opacity="0.85" />
  <rect x="800" y="346" width="240" height="6" rx="3" fill="#9ba2b3" />
  <rect x="800" y="360" width="180" height="6" rx="3" fill="#9ba2b3" />
  <circle cx="1030" cy="368" r="14" fill="#34d399" />
  <path
    d="M 1022 368 l 6 6 l 12 -12"
    fill="none"
    stroke="#ffffff"
    stroke-width="3"
    stroke-linecap="round"
    stroke-linejoin="round"
  />

  <rect x="784" y="420" width="282" height="160" rx="6" fill="#dff5e8" stroke="#b6deca" stroke-width="1" opacity="0.9" />
  <rect x="800" y="438" width="140" height="10" rx="5" fill="#1c2030" opacity="0.85" />
  <rect x="800" y="458" width="200" height="6" rx="3" fill="#9ba2b3" />
  <rect x="800" y="472" width="160" height="6" rx="3" fill="#9ba2b3" />
  <rect x="800" y="496" width="60" height="22" rx="11" fill="#1c2030" opacity="0.85" />
  <rect x="800" y="526" width="240" height="6" rx="3" fill="#9ba2b3" />
  <rect x="800" y="540" width="180" height="6" rx="3" fill="#9ba2b3" />
  <circle cx="1030" cy="548" r="14" fill="#34d399" />
  <path
    d="M 1022 548 l 6 6 l 12 -12"
    fill="none"
    stroke="#ffffff"
    stroke-width="3"
    stroke-linecap="round"
    stroke-linejoin="round"
  />

  <rect x="784" y="600" width="282" height="160" rx="6" fill="#dff5e8" stroke="#b6deca" stroke-width="1" opacity="0.9" />
  <rect x="800" y="618" width="140" height="10" rx="5" fill="#1c2030" opacity="0.85" />
  <rect x="800" y="638" width="200" height="6" rx="3" fill="#9ba2b3" />
  <rect x="800" y="652" width="160" height="6" rx="3" fill="#9ba2b3" />
  <rect x="800" y="676" width="60" height="22" rx="11" fill="#1c2030" opacity="0.85" />
  <rect x="800" y="706" width="240" height="6" rx="3" fill="#9ba2b3" />
  <rect x="800" y="720" width="180" height="6" rx="3" fill="#9ba2b3" />
  <circle cx="1030" cy="728" r="14" fill="#34d399" />
  <path
    d="M 1022 728 l 6 6 l 12 -12"
    fill="none"
    stroke="#ffffff"
    stroke-width="3"
    stroke-linecap="round"
    stroke-linejoin="round"
  />

  <path
    d="M 410 320 q 20 -10 40 0"
    fill="none"
    stroke="#1c2030"
    stroke-width="3"
    stroke-linecap="round"
    stroke-linejoin="round"
  />
  <path
    d="M 444 314 l 6 6 l 6 -10"
    fill="none"
    stroke="#1c2030"
    stroke-width="3"
    stroke-linecap="round"
    stroke-linejoin="round"
  />
  <path
    d="M 740 320 q 20 -10 40 0"
    fill="none"
    stroke="#1c2030"
    stroke-width="3"
    stroke-linecap="round"
    stroke-linejoin="round"
  />
  <path
    d="M 774 314 l 6 6 l 6 -10"
    fill="none"
    stroke="#1c2030"
    stroke-width="3"
    stroke-linecap="round"
    stroke-linejoin="round"
  />

  <g transform="translate(540, 1000) rotate(-12)">
    <rect x="0" y="0" width="200" height="18" rx="6" fill="#fb7185" />
    <rect x="200" y="0" width="30" height="18" rx="4" fill="#1c2030" />
    <path d="M 230 0 l 18 9 l -18 9 z" fill="#1c2030" stroke-linecap="round" stroke-linejoin="round" />
    <rect x="0" y="0" width="30" height="18" rx="6" fill="#1c2030" opacity="0.75" />
  </g>
</svg>
