<svg xmlns="http://www.w3.org/2000/svg" viewBox="0 0 1200 1200" preserveAspectRatio="xMidYMid slice">
  <defs>
    <pattern id="dots-code" x="0" y="0" width="14" height="14" patternUnits="userSpaceOnUse">
      <circle cx="2" cy="2" r="1" fill="#1c2030" opacity="0.10" />
    </pattern>
    <pattern id="grid-code" x="0" y="0" width="40" height="40" patternUnits="userSpaceOnUse">
      <path d="M40 0 L0 0 0 40" fill="none" stroke="#1c2030" stroke-width="0.6" opacity="0.08" />
    </pattern>
    <pattern id="hatch-code" x="0" y="0" width="6" height="6" patternUnits="userSpaceOnUse" patternTransform="rotate(45)">
      <line x1="0" y1="0" x2="0" y2="6" stroke="#a3e635" stroke-width="2" opacity="0.55" />
    </pattern>
    <linearGradient id="paper-code" x1="0" y1="0" x2="0" y2="1">
      <stop offset="0" stop-color="#ffffff" />
      <stop offset="1" stop-color="#f8f3e8" />
    </linearGradient>
    <linearGradient id="accent-code" x1="0" y1="0" x2="1" y2="1">
      <stop offset="0" stop-color="#a3e635" stop-opacity="0.95" />
      <stop offset="1" stop-color="#a3e635" stop-opacity="0.55" />
    </linearGradient>
    <filter id="grain-code">
      <feTurbulence type="fractalNoise" baseFrequency="0.9" numOctaves="2" stitchTiles="stitch" />
      <feColorMatrix values="0 0 0 0 0 0 0 0 0 0 0 0 0 0 0 0 0 0 0.08 0" />
      <feComposite in2="SourceGraphic" operator="in" />
    </filter>
  </defs>

  <rect width="1200" height="1200" fill="transparent" />
  <rect width="1200" height="1200" fill="none" />
  <rect x="122" y="148" width="820" height="600" rx="18" fill="rgba(28,32,48,0.08)" />
  <rect x="120" y="140" width="820" height="600" rx="18" fill="#ffffff" stroke="#d9d2c2" stroke-width="1" />

  <rect x="120" y="140" width="820" height="44" rx="18" fill="#f3eee2" stroke="none" stroke-width="1" opacity="1" />
  <rect x="120" y="168" width="820" height="16" rx="0" fill="#f3eee2" stroke="none" stroke-width="1" opacity="1" />
  <circle cx="150" cy="162" r="5" fill="#d9d2c2" stroke="none" stroke-width="1" opacity="1" />
  <circle cx="168" cy="162" r="5" fill="#d9d2c2" stroke="none" stroke-width="1" opacity="1" />
  <circle cx="186" cy="162" r="5" fill="#d9d2c2" stroke="none" stroke-width="1" opacity="1" />

  <rect x="220" y="152" width="110" height="32" rx="6" fill="#ffffff" stroke="#d9d2c2" stroke-width="1" opacity="1" />
  <rect x="232" y="162" width="12" height="12" rx="2" fill="#a3e635" stroke="none" stroke-width="1" opacity="1" />
  <rect x="252" y="165" width="60" height="6" rx="3" fill="#1c2030" stroke="none" stroke-width="1" opacity="0.8" />
  <rect x="340" y="152" width="110" height="32" rx="6" fill="#fbf8f1" stroke="none" stroke-width="1" opacity="1" />
  <rect x="352" y="162" width="12" height="12" rx="2" fill="#9ba2b3" stroke="none" stroke-width="1" opacity="1" />
  <rect x="372" y="165" width="60" height="6" rx="3" fill="#9ba2b3" stroke="none" stroke-width="1" opacity="1" />


  <rect x="120" y="184" width="50" height="556" rx="0" fill="#fbf8f1" stroke="none" stroke-width="1" opacity="1" />
  <rect x="132" y="210" width="22" height="4" rx="2" fill="#9ba2b3" stroke="none" stroke-width="1" opacity="0.6" />
  <rect x="132" y="238" width="22" height="4" rx="2" fill="#9ba2b3" stroke="none" stroke-width="1" opacity="0.6" />
  <rect x="132" y="266" width="22" height="4" rx="2" fill="#9ba2b3" stroke="none" stroke-width="1" opacity="0.6" />
  <rect x="132" y="294" width="22" height="4" rx="2" fill="#9ba2b3" stroke="none" stroke-width="1" opacity="0.6" />
  <rect x="132" y="322" width="22" height="4" rx="2" fill="#9ba2b3" stroke="none" stroke-width="1" opacity="0.6" />
  <rect x="132" y="350" width="22" height="4" rx="2" fill="#9ba2b3" stroke="none" stroke-width="1" opacity="0.6" />
  <rect x="132" y="378" width="22" height="4" rx="2" fill="#9ba2b3" stroke="none" stroke-width="1" opacity="0.6" />
  <rect x="132" y="406" width="22" height="4" rx="2" fill="#9ba2b3" stroke="none" stroke-width="1" opacity="0.6" />
  <rect x="132" y="434" width="22" height="4" rx="2" fill="#9ba2b3" stroke="none" stroke-width="1" opacity="0.6" />
  <rect x="132" y="462" width="22" height="4" rx="2" fill="#9ba2b3" stroke="none" stroke-width="1" opacity="0.6" />
  <rect x="132" y="490" width="22" height="4" rx="2" fill="#9ba2b3" stroke="none" stroke-width="1" opacity="0.6" />
  <rect x="132" y="518" width="22" height="4" rx="2" fill="#9ba2b3" stroke="none" stroke-width="1" opacity="0.6" />
  <rect x="132" y="546" width="22" height="4" rx="2" fill="#9ba2b3" stroke="none" stroke-width="1" opacity="0.6" />
  <rect x="132" y="574" width="22" height="4" rx="2" fill="#9ba2b3" stroke="none" stroke-width="1" opacity="0.6" />
  <rect x="132" y="602" width="22" height="4" rx="2" fill="#9ba2b3" stroke="none" stroke-width="1" opacity="0.6" />
  <rect x="132" y="630" width="22" height="4" rx="2" fill="#9ba2b3" stroke="none" stroke-width="1" opacity="0.6" />
  <rect x="132" y="658" width="22" height="4" rx="2" fill="#9ba2b3" stroke="none" stroke-width="1" opacity="0.6" />
  <rect x="132" y="686" width="22" height="4" rx="2" fill="#9ba2b3" stroke="none" stroke-width="1" opacity="0.6" />


  <rect x="196" y="200" width="60" height="8" rx="3" fill="#5b6175" stroke="none" stroke-width="1" opacity="0.55" />
  <rect x="268" y="200" width="120" height="8" rx="3" fill="#a3e635" stroke="none" stroke-width="1" opacity="0.9" />
  <rect x="400" y="200" width="80" height="8" rx="3" fill="#1c2030" stroke="none" stroke-width="1" opacity="0.9" />
  <rect x="220" y="228" width="100" height="8" rx="3" fill="#5b6175" stroke="none" stroke-width="1" opacity="0.55" />
  <rect x="332" y="228" width="60" height="8" rx="3" fill="#a3e635" stroke="none" stroke-width="1" opacity="0.9" />
  <rect x="244" y="256" width="80" height="8" rx="3" fill="#1c2030" stroke="none" stroke-width="1" opacity="0.9" />
  <rect x="336" y="256" width="140" height="8" rx="3" fill="#a3e635" stroke="none" stroke-width="1" opacity="0.9" />
  <rect x="488" y="256" width="60" height="8" rx="3" fill="#5b6175" stroke="none" stroke-width="1" opacity="0.55" />
  <rect x="244" y="284" width="120" height="8" rx="3" fill="#5b6175" stroke="none" stroke-width="1" opacity="0.55" />
  <rect x="376" y="284" width="60" height="8" rx="3" fill="#a3e635" stroke="none" stroke-width="1" opacity="0.9" />
  <rect x="268" y="312" width="60" height="8" rx="3" fill="#a3e635" stroke="none" stroke-width="1" opacity="0.9" />
  <rect x="340" y="312" width="140" height="8" rx="3" fill="#1c2030" stroke="none" stroke-width="1" opacity="0.9" />
  <rect x="492" y="312" width="60" height="8" rx="3" fill="#5b6175" stroke="none" stroke-width="1" opacity="0.55" />
  <rect x="268" y="340" width="100" height="8" rx="3" fill="#5b6175" stroke="none" stroke-width="1" opacity="0.55" />
  <rect x="380" y="340" width="80" height="8" rx="3" fill="#1c2030" stroke="none" stroke-width="1" opacity="0.9" />
  <rect x="472" y="340" width="40" height="8" rx="3" fill="#a3e635" stroke="none" stroke-width="1" opacity="0.9" />
  <rect x="244" y="368" width="80" height="8" rx="3" fill="#1c2030" stroke="none" stroke-width="1" opacity="0.9" />
  <rect x="336" y="368" width="120" height="8" rx="3" fill="#a3e635" stroke="none" stroke-width="1" opacity="0.9" />
  <rect x="244" y="396" width="60" height="8" rx="3" fill="#5b6175" stroke="none" stroke-width="1" opacity="0.55" />
  <rect x="316" y="396" width="80" height="8" rx="3" fill="#1c2030" stroke="none" stroke-width="1" opacity="0.9" />
  <rect x="408" y="396" width="120" height="8" rx="3" fill="#a3e635" stroke="none" stroke-width="1" opacity="0.9" />
  <rect x="220" y="424" width="140" height="8" rx="3" fill="#5b6175" stroke="none" stroke-width="1" opacity="0.55" />
  <rect x="220" y="452" width="60" height="8" rx="3" fill="#a3e635" stroke="none" stroke-width="1" opacity="0.9" />
  <rect x="292" y="452" width="200" height="8" rx="3" fill="#1c2030" stroke="none" stroke-width="1" opacity="0.9" />
  <rect x="244" y="480" width="120" height="8" rx="3" fill="#5b6175" stroke="none" stroke-width="1" opacity="0.55" />
  <rect x="376" y="480" width="60" height="8" rx="3" fill="#a3e635" stroke="none" stroke-width="1" opacity="0.9" />
  <rect x="448" y="480" width="80" height="8" rx="3" fill="#1c2030" stroke="none" stroke-width="1" opacity="0.9" />
  <rect x="244" y="508" width="100" height="8" rx="3" fill="#1c2030" stroke="none" stroke-width="1" opacity="0.9" />
  <rect x="356" y="508" width="80" height="8" rx="3" fill="#a3e635" stroke="none" stroke-width="1" opacity="0.9" />
  <rect x="220" y="536" width="60" height="8" rx="3" fill="#5b6175" stroke="none" stroke-width="1" opacity="0.55" />
  <rect x="292" y="536" width="120" height="8" rx="3" fill="#1c2030" stroke="none" stroke-width="1" opacity="0.9" />
  <rect x="196" y="564" width="40" height="8" rx="3" fill="#a3e635" stroke="none" stroke-width="1" opacity="0.9" />
  <rect x="248" y="564" width="180" height="8" rx="3" fill="#1c2030" stroke="none" stroke-width="1" opacity="0.9" />
  <rect x="196" y="592" width="80" height="8" rx="3" fill="#5b6175" stroke="none" stroke-width="1" opacity="0.55" />
  <rect x="220" y="620" width="60" height="8" rx="3" fill="#5b6175" stroke="none" stroke-width="1" opacity="0.55" />
  <rect x="292" y="620" width="200" height="8" rx="3" fill="#a3e635" stroke="none" stroke-width="1" opacity="0.9" />
  <rect x="244" y="648" width="60" height="8" rx="3" fill="#1c2030" stroke="none" stroke-width="1" opacity="0.9" />
  <rect x="316" y="648" width="120" height="8" rx="3" fill="#a3e635" stroke="none" stroke-width="1" opacity="0.9" />
  <rect x="448" y="648" width="80" height="8" rx="3" fill="#5b6175" stroke="none" stroke-width="1" opacity="0.55" />
  <rect x="220" y="676" width="60" height="8" rx="3" fill="#a3e635" stroke="none" stroke-width="1" opacity="0.9" />
  <rect x="292" y="676" width="80" height="8" rx="3" fill="#1c2030" stroke="none" stroke-width="1" opacity="0.9" />


  <rect x="432" y="312" width="2" height="16" rx="0" fill="#1c2030" stroke="none" stroke-width="1" opacity="1" />


  <rect x="560" y="700" width="580" height="360" rx="18" fill="rgba(28,32,48,0.08)" stroke="none" stroke-width="1" opacity="1" />
  <rect x="556" y="696" width="580" height="360" rx="18" fill="#1d2333" stroke="none" stroke-width="1" opacity="1" />
  <rect x="556" y="696" width="580" height="36" rx="18" fill="#262d40" stroke="none" stroke-width="1" opacity="1" />
  <rect x="556" y="716" width="580" height="16" rx="0" fill="#262d40" stroke="none" stroke-width="1" opacity="1" />
  <circle cx="580" cy="714" r="5" fill="#fb7185" stroke="none" stroke-width="1" opacity="1" />
  <circle cx="596" cy="714" r="5" fill="#facc15" stroke="none" stroke-width="1" opacity="1" />
  <circle cx="612" cy="714" r="5" fill="#34d399" stroke="none" stroke-width="1" opacity="1" />
  <rect x="720" y="706" width="200" height="16" rx="8" fill="#1d2333" stroke="none" stroke-width="1" opacity="1" />


  <rect x="580" y="760" width="14" height="8" rx="3" fill="#a3e635" stroke="none" stroke-width="1" opacity="0.85" />
  <rect x="606" y="760" width="80" height="8" rx="3" fill="#9ba2b3" stroke="none" stroke-width="1" opacity="0.85" />
  <rect x="698" y="760" width="60" height="8" rx="3" fill="#34d399" stroke="none" stroke-width="1" opacity="0.85" />
  <rect x="770" y="760" width="120" height="8" rx="3" fill="#e2e8f0" stroke="none" stroke-width="1" opacity="0.85" />
  <rect x="580" y="786" width="14" height="8" rx="3" fill="#a3e635" stroke="none" stroke-width="1" opacity="0.85" />
  <rect x="606" y="786" width="120" height="8" rx="3" fill="#9ba2b3" stroke="none" stroke-width="1" opacity="0.85" />
  <rect x="738" y="786" width="80" height="8" rx="3" fill="#facc15" stroke="none" stroke-width="1" opacity="0.85" />
  <rect x="580" y="812" width="200" height="8" rx="3" fill="#9ba2b3" stroke="none" stroke-width="1" opacity="0.85" />
  <rect x="580" y="838" width="14" height="8" rx="3" fill="#a3e635" stroke="none" stroke-width="1" opacity="0.85" />
  <rect x="606" y="838" width="60" height="8" rx="3" fill="#9ba2b3" stroke="none" stroke-width="1" opacity="0.85" />
  <rect x="678" y="838" width="180" height="8" rx="3" fill="#e2e8f0" stroke="none" stroke-width="1" opacity="0.85" />
  <rect x="580" y="864" width="200" height="8" rx="3" fill="#34d399" stroke="none" stroke-width="1" opacity="0.85" />
  <rect x="792" y="864" width="60" height="8" rx="3" fill="#9ba2b3" stroke="none" stroke-width="1" opacity="0.85" />
  <rect x="580" y="890" width="80" height="8" rx="3" fill="#9ba2b3" stroke="none" stroke-width="1" opacity="0.85" />
  <rect x="672" y="890" width="40" height="8" rx="3" fill="#a3e635" stroke="none" stroke-width="1" opacity="0.85" />
  <rect x="724" y="890" width="120" height="8" rx="3" fill="#e2e8f0" stroke="none" stroke-width="1" opacity="0.85" />
  <rect x="580" y="916" width="14" height="8" rx="3" fill="#a3e635" stroke="none" stroke-width="1" opacity="0.85" />
  <rect x="606" y="916" width="240" height="8" rx="3" fill="#e2e8f0" stroke="none" stroke-width="1" opacity="0.85" />
  <rect x="580" y="942" width="60" height="8" rx="3" fill="#9ba2b3" stroke="none" stroke-width="1" opacity="0.85" />
  <rect x="652" y="942" width="180" height="8" rx="3" fill="#34d399" stroke="none" stroke-width="1" opacity="0.85" />
  <rect x="580" y="968" width="14" height="8" rx="3" fill="#a3e635" stroke="none" stroke-width="1" opacity="0.85" />

  <rect x="596" y="968" width="12" height="16" rx="0" fill="#a3e635" stroke="none" stroke-width="1" opacity="1" />


  <path d="M 80 380 q -30 60 0 120" fill="none" stroke="#a3e635" stroke-width="12" stroke-linecap="round" stroke-linejoin="round" opacity="1" />
  <path d="M 1100 200 q 40 60 0 120" fill="none" stroke="#a3e635" stroke-width="12" stroke-linecap="round" stroke-linejoin="round" opacity="1" />
</svg>
