<svg xmlns="http://www.w3.org/2000/svg" viewBox="0 0 1200 1200" preserveAspectRatio="xMidYMid slice">
      
    <defs>
      <pattern id="dots-14" x="0" y="0" width="14" height="14" patternUnits="userSpaceOnUse">
        <circle cx="2" cy="2" r="1" fill="#1c2030" opacity="0.10"></circle>
      </pattern>
      <pattern id="grid-14" x="0" y="0" width="40" height="40" patternUnits="userSpaceOnUse">
        <path d="M40 0 L0 0 0 40" fill="none" stroke="#1c2030" stroke-width="0.6" opacity="0.08"></path>
      </pattern>
      <pattern id="hatch-14" x="0" y="0" width="6" height="6" patternUnits="userSpaceOnUse" patternTransform="rotate(45)">
        <line x1="0" y1="0" x2="0" y2="6" stroke="#6366f1" stroke-width="2" opacity="0.55"></line>
      </pattern>
      <linearGradient id="paper-14" x1="0" y1="0" x2="0" y2="1">
        <stop offset="0" stop-color="#ffffff"></stop>
        <stop offset="1" stop-color="#f8f3e8"></stop>
      </linearGradient>
      <linearGradient id="accent-14" x1="0" y1="0" x2="1" y2="1">
        <stop offset="0" stop-color="#6366f1" stop-opacity="0.95"></stop>
        <stop offset="1" stop-color="#6366f1" stop-opacity="0.55"></stop>
      </linearGradient>
<filter id="grain-14">
        <feTurbulence type="fractalNoise" baseFrequency="0.9" numOctaves="2" stitchTiles="stitch"></feTurbulence>
        <feColorMatrix values="0 0 0 0 0
                               0 0 0 0 0
                               0 0 0 0 0
                               0 0 0 0.08 0"></feColorMatrix>
        <feComposite in2="SourceGraphic" operator="in"></feComposite>
      </filter>
    </defs>
  
      
      <rect width="1200" height="1200" fill="transparent" />
  <rect width="1200" height="1200" fill="none" />
      
      
    

      
    <rect x="62" y="108" width="1080" height="1000" rx="18" fill="rgba(28,32,48,0.08)"></rect>
    <rect x="60" y="100" width="1080" height="1000" rx="18" fill="#ffffff" stroke="#d9d2c2" stroke-width="1"></rect>
  

      <!-- top bar -->
      <rect x="60" y="100" width="1080" height="56" rx="18" fill="#fbf8f1" stroke="none" stroke-width="1" opacity="1"></rect>
      <rect x="60" y="140" width="1080" height="16" rx="0" fill="#fbf8f1" stroke="none" stroke-width="1" opacity="1"></rect>
      <!-- search -->
      <rect x="266" y="116" width="540" height="30" rx="8" fill="#ffffff" stroke="#d9d2c2" stroke-width="1" opacity="1"></rect>
      <circle cx="286" cy="131" r="6" fill="none" stroke="#5b6175" stroke-width="1.5" opacity="1"></circle>
      <line x1="292" y1="137" x2="298" y2="143" stroke="#5b6175" stroke-width="1.5" stroke-linecap="round" opacity="1"></line>
      <rect x="310" y="128" width="200" height="6" rx="3" fill="#9ba2b3" stroke="none" stroke-width="1" opacity="1"></rect>
      <!-- store name pill -->
      <rect x="80" y="116" width="170" height="30" rx="6" fill="#ffffff" stroke="#d9d2c2" stroke-width="1" opacity="1"></rect>
      <circle cx="98" cy="131" r="9" fill="#6366f1" stroke="none" stroke-width="1" opacity="1"></circle>
      <rect x="118" y="124" width="90" height="6" rx="3" fill="#1c2030" stroke="none" stroke-width="1" opacity="0.85"></rect>
      <rect x="118" y="134" width="60" height="5" rx="2" fill="#5b6175" stroke="none" stroke-width="1" opacity="1"></rect>
      <!-- notifications/user -->
      <circle cx="1050" cy="131" r="12" fill="none" stroke="#5b6175" stroke-width="1.5" opacity="1"></circle>
      <path d="M 1044 128 q 6 -6 12 0" fill="none" stroke="#5b6175" stroke-width="1.5" stroke-linecap="round" stroke-linejoin="round" opacity="1"></path>
      <circle cx="1090" cy="131" r="16" fill="#6366f1" stroke="none" stroke-width="1" opacity="0.85"></circle>

      <!-- LEFT nav rail -->
      <rect x="60" y="156" width="200" height="944" rx="0" fill="#fbf8f1" stroke="none" stroke-width="1" opacity="1"></rect>
      <line x1="260" y1="156" x2="260" y2="1100" stroke="#d9d2c2" stroke-width="1" stroke-linecap="round" opacity="1"></line>

      
          
          <rect x="88" y="197" width="12" height="12" rx="2" fill="#5b6175" stroke="none" stroke-width="1" opacity="0.7"></rect>
          <rect x="112" y="199" width="90" height="8" rx="4" fill="#5b6175" stroke="none" stroke-width="1" opacity="0.85"></rect>
          
        
          <rect x="76" y="228" width="168" height="36" rx="6" fill="#6366f1" stroke="none" stroke-width="1" opacity="0.18"></rect>
          <rect x="88" y="241" width="12" height="12" rx="2" fill="#6366f1" stroke="none" stroke-width="1" opacity="1"></rect>
          <rect x="112" y="243" width="88" height="8" rx="4" fill="#1c2030" stroke="none" stroke-width="1" opacity="0.95"></rect>
          <rect x="76" y="228" width="3" height="36" rx="2" fill="#6366f1" stroke="none" stroke-width="1" opacity="1"></rect>
        
          
          <rect x="88" y="285" width="12" height="12" rx="2" fill="#5b6175" stroke="none" stroke-width="1" opacity="0.7"></rect>
          <rect x="112" y="287" width="86" height="8" rx="4" fill="#5b6175" stroke="none" stroke-width="1" opacity="0.85"></rect>
          
        
          
          <rect x="88" y="329" width="12" height="12" rx="2" fill="#5b6175" stroke="none" stroke-width="1" opacity="0.7"></rect>
          <rect x="112" y="331" width="84" height="8" rx="4" fill="#5b6175" stroke="none" stroke-width="1" opacity="0.85"></rect>
          
        
          
          <rect x="88" y="373" width="12" height="12" rx="2" fill="#5b6175" stroke="none" stroke-width="1" opacity="0.7"></rect>
          <rect x="112" y="375" width="82" height="8" rx="4" fill="#5b6175" stroke="none" stroke-width="1" opacity="0.85"></rect>
          
        
          
          <rect x="88" y="417" width="12" height="12" rx="2" fill="#5b6175" stroke="none" stroke-width="1" opacity="0.7"></rect>
          <rect x="112" y="419" width="80" height="8" rx="4" fill="#5b6175" stroke="none" stroke-width="1" opacity="0.85"></rect>
          
        
          
          <rect x="88" y="461" width="12" height="12" rx="2" fill="#5b6175" stroke="none" stroke-width="1" opacity="0.7"></rect>
          <rect x="112" y="463" width="78" height="8" rx="4" fill="#5b6175" stroke="none" stroke-width="1" opacity="0.85"></rect>
          
        
          
          <rect x="88" y="505" width="12" height="12" rx="2" fill="#5b6175" stroke="none" stroke-width="1" opacity="0.7"></rect>
          <rect x="112" y="507" width="76" height="8" rx="4" fill="#5b6175" stroke="none" stroke-width="1" opacity="0.85"></rect>
          
        
          
          <rect x="88" y="549" width="12" height="12" rx="2" fill="#5b6175" stroke="none" stroke-width="1" opacity="0.7"></rect>
          <rect x="112" y="551" width="74" height="8" rx="4" fill="#5b6175" stroke="none" stroke-width="1" opacity="0.85"></rect>
          
        

      <!-- bottom: settings -->
      <rect x="76" y="1040" width="168" height="40" rx="6" fill="#ffffff" stroke="#d9d2c2" stroke-width="1" opacity="1"></rect>
      <circle cx="98" cy="1060" r="9" fill="#5b6175" stroke="none" stroke-width="1" opacity="1"></circle>
      <rect x="118" y="1058" width="80" height="6" rx="3" fill="#1c2030" stroke="none" stroke-width="1" opacity="0.85"></rect>

      <!-- MAIN: Orders -->
      <rect x="280" y="180" width="60" height="14" rx="4" fill="#5b6175" stroke="none" stroke-width="1" opacity="1"></rect>
      <rect x="280" y="204" width="200" height="24" rx="6" fill="#1c2030" stroke="none" stroke-width="1" opacity="1"></rect>
      <rect x="960" y="196" width="160" height="36" rx="8" fill="#1c2030" stroke="none" stroke-width="1" opacity="1"></rect>
      <rect x="982" y="210" width="116" height="8" rx="4" fill="#ffffff" stroke="none" stroke-width="1" opacity="0.95"></rect>

      <!-- tabs -->
      <rect x="280" y="248" width="60" height="28" rx="14" fill="#6366f1" stroke="none" stroke-width="1" opacity="0.18"></rect>
      <rect x="294" y="258" width="32" height="8" rx="4" fill="#6366f1" stroke="none" stroke-width="1" opacity="1"></rect>
      <rect x="348" y="248" width="70" height="28" rx="14" fill="none" stroke="none" stroke-width="1" opacity="1"></rect>
      <rect x="362" y="258" width="42" height="8" rx="4" fill="#5b6175" stroke="none" stroke-width="1" opacity="1"></rect>
      <rect x="426" y="248" width="70" height="28" rx="14" fill="none" stroke="none" stroke-width="1" opacity="1"></rect>
      <rect x="440" y="258" width="42" height="8" rx="4" fill="#5b6175" stroke="none" stroke-width="1" opacity="1"></rect>
      <rect x="504" y="248" width="80" height="28" rx="14" fill="none" stroke="none" stroke-width="1" opacity="1"></rect>
      <rect x="522" y="258" width="52" height="8" rx="4" fill="#5b6175" stroke="none" stroke-width="1" opacity="1"></rect>
      <rect x="592" y="248" width="30" height="28" rx="14" fill="none" stroke="#d9d2c2" stroke-width="1" opacity="1"></rect>
      <path d="M 600 264 h 14 m -7 -7 v 14" fill="none" stroke="#5b6175" stroke-width="1.5" stroke-linecap="round" stroke-linejoin="round" opacity="1"></path>

      <!-- filter row -->
      <rect x="280" y="296" width="60" height="30" rx="6" fill="none" stroke="#d9d2c2" stroke-width="1" opacity="1"></rect>
      <rect x="294" y="308" width="32" height="6" rx="3" fill="#5b6175" stroke="none" stroke-width="1" opacity="1"></rect>
      <rect x="348" y="296" width="96" height="30" rx="6" fill="none" stroke="#d9d2c2" stroke-width="1" opacity="1"></rect>
      <rect x="362" y="308" width="64" height="6" rx="3" fill="#5b6175" stroke="none" stroke-width="1" opacity="1"></rect>
      <path d="M 432 308 l 4 4 l 4 -4" fill="none" stroke="#5b6175" stroke-width="1.5" stroke-linecap="round" stroke-linejoin="round" opacity="1"></path>
      <rect x="452" y="296" width="96" height="30" rx="6" fill="none" stroke="#d9d2c2" stroke-width="1" opacity="1"></rect>
      <rect x="466" y="308" width="64" height="6" rx="3" fill="#5b6175" stroke="none" stroke-width="1" opacity="1"></rect>
      <path d="M 536 308 l 4 4 l 4 -4" fill="none" stroke="#5b6175" stroke-width="1.5" stroke-linecap="round" stroke-linejoin="round" opacity="1"></path>
      <rect x="1050" y="296" width="70" height="30" rx="6" fill="none" stroke="#d9d2c2" stroke-width="1" opacity="1"></rect>
      <rect x="1064" y="308" width="40" height="6" rx="3" fill="#5b6175" stroke="none" stroke-width="1" opacity="1"></rect>

      <!-- Table card -->
      <rect x="280" y="344" width="840" height="720" rx="12" fill="#ffffff" stroke="#d9d2c2" stroke-width="1" opacity="1"></rect>

      <!-- table header -->
      <rect x="280" y="344" width="840" height="44" rx="12" fill="#fbf8f1" stroke="none" stroke-width="1" opacity="1"></rect>
      <rect x="280" y="376" width="840" height="12" rx="0" fill="#fbf8f1" stroke="none" stroke-width="1" opacity="1"></rect>
      <rect x="296" y="360" width="14" height="14" rx="3" fill="none" stroke="#d9d2c2" stroke-width="1.5" opacity="1"></rect>
      <rect x="328" y="362" width="60" height="8" rx="4" fill="#5b6175" stroke="none" stroke-width="1" opacity="0.85"></rect><rect x="432" y="362" width="60" height="8" rx="4" fill="#5b6175" stroke="none" stroke-width="1" opacity="0.85"></rect><rect x="552" y="362" width="60" height="8" rx="4" fill="#5b6175" stroke="none" stroke-width="1" opacity="0.85"></rect><rect x="712" y="362" width="60" height="8" rx="4" fill="#5b6175" stroke="none" stroke-width="1" opacity="0.85"></rect><rect x="820" y="362" width="60" height="8" rx="4" fill="#5b6175" stroke="none" stroke-width="1" opacity="0.85"></rect><rect x="950" y="362" width="60" height="8" rx="4" fill="#5b6175" stroke="none" stroke-width="1" opacity="0.85"></rect>

      <!-- rows -->
      
            
            <line x1="280" y1="456" x2="1120" y2="456" stroke="#d9d2c2" stroke-width="1" stroke-linecap="round" opacity="1"></line>
            <rect x="296" y="414" width="14" height="14" rx="3" fill="none" stroke="#d9d2c2" stroke-width="1.5" opacity="1"></rect>
            <rect x="328" y="418" width="56" height="8" rx="4" fill="#1c2030" stroke="none" stroke-width="1" opacity="0.85"></rect>
            <rect x="432" y="418" width="70" height="6" rx="3" fill="#5b6175" stroke="none" stroke-width="1" opacity="1"></rect>
            <rect x="432" y="430" width="50" height="6" rx="3" fill="#9ba2b3" stroke="none" stroke-width="1" opacity="1"></rect>
            <!-- avatar + name -->
            <circle cx="560" cy="426" r="10" fill="#facc15" stroke="none" stroke-width="1" opacity="0.8"></circle>
            <rect x="578" y="418" width="90" height="6" rx="3" fill="#1c2030" stroke="none" stroke-width="1" opacity="0.85"></rect>
            <rect x="578" y="430" width="60" height="6" rx="3" fill="#9ba2b3" stroke="none" stroke-width="1" opacity="1"></rect>
            <!-- total -->
            <rect x="712" y="418" width="60" height="8" rx="4" fill="#1c2030" stroke="none" stroke-width="1" opacity="0.85"></rect>
            <!-- payment pill -->
            <rect x="816" y="414" width="90" height="24" rx="12" fill="#6366f1" stroke="none" stroke-width="1" opacity="0.18"></rect>
            <circle cx="828" cy="426" r="4" fill="#6366f1" stroke="none" stroke-width="1" opacity="1"></circle>
            <rect x="840" y="423" width="56" height="6" rx="3" fill="#1c2030" stroke="none" stroke-width="1" opacity="0.85"></rect>
            <!-- fulfillment pill -->
            <rect x="950" y="414" width="110" height="24" rx="12" fill="#6366f1" stroke="none" stroke-width="1" opacity="0.18"></rect>
            <circle cx="962" cy="426" r="4" fill="#6366f1" stroke="none" stroke-width="1" opacity="1"></circle>
            <rect x="974" y="423" width="70" height="6" rx="3" fill="#1c2030" stroke="none" stroke-width="1" opacity="0.85"></rect>
          
            <rect x="280" y="456" width="840" height="56" rx="0" fill="#fbf8f1" stroke="none" stroke-width="1" opacity="0.4"></rect>
            <line x1="280" y1="512" x2="1120" y2="512" stroke="#d9d2c2" stroke-width="1" stroke-linecap="round" opacity="1"></line>
            <rect x="296" y="470" width="14" height="14" rx="3" fill="none" stroke="#d9d2c2" stroke-width="1.5" opacity="1"></rect>
            <rect x="328" y="474" width="56" height="8" rx="4" fill="#1c2030" stroke="none" stroke-width="1" opacity="0.85"></rect>
            <rect x="432" y="474" width="70" height="6" rx="3" fill="#5b6175" stroke="none" stroke-width="1" opacity="1"></rect>
            <rect x="432" y="486" width="50" height="6" rx="3" fill="#9ba2b3" stroke="none" stroke-width="1" opacity="1"></rect>
            <!-- avatar + name -->
            <circle cx="560" cy="482" r="10" fill="#34d399" stroke="none" stroke-width="1" opacity="0.8"></circle>
            <rect x="578" y="474" width="90" height="6" rx="3" fill="#1c2030" stroke="none" stroke-width="1" opacity="0.85"></rect>
            <rect x="578" y="486" width="60" height="6" rx="3" fill="#9ba2b3" stroke="none" stroke-width="1" opacity="1"></rect>
            <!-- total -->
            <rect x="712" y="474" width="60" height="8" rx="4" fill="#1c2030" stroke="none" stroke-width="1" opacity="0.85"></rect>
            <!-- payment pill -->
            <rect x="816" y="470" width="90" height="24" rx="12" fill="#6366f1" stroke="none" stroke-width="1" opacity="0.18"></rect>
            <circle cx="828" cy="482" r="4" fill="#6366f1" stroke="none" stroke-width="1" opacity="1"></circle>
            <rect x="840" y="479" width="56" height="6" rx="3" fill="#1c2030" stroke="none" stroke-width="1" opacity="0.85"></rect>
            <!-- fulfillment pill -->
            <rect x="950" y="470" width="110" height="24" rx="12" fill="#facc15" stroke="none" stroke-width="1" opacity="0.18"></rect>
            <circle cx="962" cy="482" r="4" fill="#facc15" stroke="none" stroke-width="1" opacity="1"></circle>
            <rect x="974" y="479" width="70" height="6" rx="3" fill="#1c2030" stroke="none" stroke-width="1" opacity="0.85"></rect>
          
            
            <line x1="280" y1="568" x2="1120" y2="568" stroke="#d9d2c2" stroke-width="1" stroke-linecap="round" opacity="1"></line>
            <rect x="296" y="526" width="14" height="14" rx="3" fill="none" stroke="#d9d2c2" stroke-width="1.5" opacity="1"></rect>
            <rect x="328" y="530" width="56" height="8" rx="4" fill="#1c2030" stroke="none" stroke-width="1" opacity="0.85"></rect>
            <rect x="432" y="530" width="70" height="6" rx="3" fill="#5b6175" stroke="none" stroke-width="1" opacity="1"></rect>
            <rect x="432" y="542" width="50" height="6" rx="3" fill="#9ba2b3" stroke="none" stroke-width="1" opacity="1"></rect>
            <!-- avatar + name -->
            <circle cx="560" cy="538" r="10" fill="#fb7185" stroke="none" stroke-width="1" opacity="0.8"></circle>
            <rect x="578" y="530" width="90" height="6" rx="3" fill="#1c2030" stroke="none" stroke-width="1" opacity="0.85"></rect>
            <rect x="578" y="542" width="60" height="6" rx="3" fill="#9ba2b3" stroke="none" stroke-width="1" opacity="1"></rect>
            <!-- total -->
            <rect x="712" y="530" width="60" height="8" rx="4" fill="#1c2030" stroke="none" stroke-width="1" opacity="0.85"></rect>
            <!-- payment pill -->
            <rect x="816" y="526" width="90" height="24" rx="12" fill="#facc15" stroke="none" stroke-width="1" opacity="0.18"></rect>
            <circle cx="828" cy="538" r="4" fill="#d97706" stroke="none" stroke-width="1" opacity="1"></circle>
            <rect x="840" y="535" width="56" height="6" rx="3" fill="#1c2030" stroke="none" stroke-width="1" opacity="0.85"></rect>
            <!-- fulfillment pill -->
            <rect x="950" y="526" width="110" height="24" rx="12" fill="#facc15" stroke="none" stroke-width="1" opacity="0.18"></rect>
            <circle cx="962" cy="538" r="4" fill="#facc15" stroke="none" stroke-width="1" opacity="1"></circle>
            <rect x="974" y="535" width="70" height="6" rx="3" fill="#1c2030" stroke="none" stroke-width="1" opacity="0.85"></rect>
          
            <rect x="280" y="568" width="840" height="56" rx="0" fill="#fbf8f1" stroke="none" stroke-width="1" opacity="0.4"></rect>
            <line x1="280" y1="624" x2="1120" y2="624" stroke="#d9d2c2" stroke-width="1" stroke-linecap="round" opacity="1"></line>
            <rect x="296" y="582" width="14" height="14" rx="3" fill="none" stroke="#d9d2c2" stroke-width="1.5" opacity="1"></rect>
            <rect x="328" y="586" width="56" height="8" rx="4" fill="#1c2030" stroke="none" stroke-width="1" opacity="0.85"></rect>
            <rect x="432" y="586" width="70" height="6" rx="3" fill="#5b6175" stroke="none" stroke-width="1" opacity="1"></rect>
            <rect x="432" y="598" width="50" height="6" rx="3" fill="#9ba2b3" stroke="none" stroke-width="1" opacity="1"></rect>
            <!-- avatar + name -->
            <circle cx="560" cy="594" r="10" fill="#6366f1" stroke="none" stroke-width="1" opacity="0.8"></circle>
            <rect x="578" y="586" width="90" height="6" rx="3" fill="#1c2030" stroke="none" stroke-width="1" opacity="0.85"></rect>
            <rect x="578" y="598" width="60" height="6" rx="3" fill="#9ba2b3" stroke="none" stroke-width="1" opacity="1"></rect>
            <!-- total -->
            <rect x="712" y="586" width="60" height="8" rx="4" fill="#1c2030" stroke="none" stroke-width="1" opacity="0.85"></rect>
            <!-- payment pill -->
            <rect x="816" y="582" width="90" height="24" rx="12" fill="#6366f1" stroke="none" stroke-width="1" opacity="0.18"></rect>
            <circle cx="828" cy="594" r="4" fill="#6366f1" stroke="none" stroke-width="1" opacity="1"></circle>
            <rect x="840" y="591" width="56" height="6" rx="3" fill="#1c2030" stroke="none" stroke-width="1" opacity="0.85"></rect>
            <!-- fulfillment pill -->
            <rect x="950" y="582" width="110" height="24" rx="12" fill="#6366f1" stroke="none" stroke-width="1" opacity="0.18"></rect>
            <circle cx="962" cy="594" r="4" fill="#6366f1" stroke="none" stroke-width="1" opacity="1"></circle>
            <rect x="974" y="591" width="70" height="6" rx="3" fill="#1c2030" stroke="none" stroke-width="1" opacity="0.85"></rect>
          
            
            <line x1="280" y1="680" x2="1120" y2="680" stroke="#d9d2c2" stroke-width="1" stroke-linecap="round" opacity="1"></line>
            <rect x="296" y="638" width="14" height="14" rx="3" fill="none" stroke="#d9d2c2" stroke-width="1.5" opacity="1"></rect>
            <rect x="328" y="642" width="56" height="8" rx="4" fill="#1c2030" stroke="none" stroke-width="1" opacity="0.85"></rect>
            <rect x="432" y="642" width="70" height="6" rx="3" fill="#5b6175" stroke="none" stroke-width="1" opacity="1"></rect>
            <rect x="432" y="654" width="50" height="6" rx="3" fill="#9ba2b3" stroke="none" stroke-width="1" opacity="1"></rect>
            <!-- avatar + name -->
            <circle cx="560" cy="650" r="10" fill="#a78bfa" stroke="none" stroke-width="1" opacity="0.8"></circle>
            <rect x="578" y="642" width="90" height="6" rx="3" fill="#1c2030" stroke="none" stroke-width="1" opacity="0.85"></rect>
            <rect x="578" y="654" width="60" height="6" rx="3" fill="#9ba2b3" stroke="none" stroke-width="1" opacity="1"></rect>
            <!-- total -->
            <rect x="712" y="642" width="60" height="8" rx="4" fill="#1c2030" stroke="none" stroke-width="1" opacity="0.85"></rect>
            <!-- payment pill -->
            <rect x="816" y="638" width="90" height="24" rx="12" fill="#fb7185" stroke="none" stroke-width="1" opacity="0.18"></rect>
            <circle cx="828" cy="650" r="4" fill="#f43f5e" stroke="none" stroke-width="1" opacity="1"></circle>
            <rect x="840" y="647" width="56" height="6" rx="3" fill="#1c2030" stroke="none" stroke-width="1" opacity="0.85"></rect>
            <!-- fulfillment pill -->
            <rect x="950" y="638" width="110" height="24" rx="12" fill="#fb7185" stroke="none" stroke-width="1" opacity="0.18"></rect>
            <circle cx="962" cy="650" r="4" fill="#fb7185" stroke="none" stroke-width="1" opacity="1"></circle>
            <rect x="974" y="647" width="70" height="6" rx="3" fill="#1c2030" stroke="none" stroke-width="1" opacity="0.85"></rect>
          
            <rect x="280" y="680" width="840" height="56" rx="0" fill="#fbf8f1" stroke="none" stroke-width="1" opacity="0.4"></rect>
            <line x1="280" y1="736" x2="1120" y2="736" stroke="#d9d2c2" stroke-width="1" stroke-linecap="round" opacity="1"></line>
            <rect x="296" y="694" width="14" height="14" rx="3" fill="none" stroke="#d9d2c2" stroke-width="1.5" opacity="1"></rect>
            <rect x="328" y="698" width="56" height="8" rx="4" fill="#1c2030" stroke="none" stroke-width="1" opacity="0.85"></rect>
            <rect x="432" y="698" width="70" height="6" rx="3" fill="#5b6175" stroke="none" stroke-width="1" opacity="1"></rect>
            <rect x="432" y="710" width="50" height="6" rx="3" fill="#9ba2b3" stroke="none" stroke-width="1" opacity="1"></rect>
            <!-- avatar + name -->
            <circle cx="560" cy="706" r="10" fill="#facc15" stroke="none" stroke-width="1" opacity="0.8"></circle>
            <rect x="578" y="698" width="90" height="6" rx="3" fill="#1c2030" stroke="none" stroke-width="1" opacity="0.85"></rect>
            <rect x="578" y="710" width="60" height="6" rx="3" fill="#9ba2b3" stroke="none" stroke-width="1" opacity="1"></rect>
            <!-- total -->
            <rect x="712" y="698" width="60" height="8" rx="4" fill="#1c2030" stroke="none" stroke-width="1" opacity="0.85"></rect>
            <!-- payment pill -->
            <rect x="816" y="694" width="90" height="24" rx="12" fill="#6366f1" stroke="none" stroke-width="1" opacity="0.18"></rect>
            <circle cx="828" cy="706" r="4" fill="#6366f1" stroke="none" stroke-width="1" opacity="1"></circle>
            <rect x="840" y="703" width="56" height="6" rx="3" fill="#1c2030" stroke="none" stroke-width="1" opacity="0.85"></rect>
            <!-- fulfillment pill -->
            <rect x="950" y="694" width="110" height="24" rx="12" fill="#6366f1" stroke="none" stroke-width="1" opacity="0.18"></rect>
            <circle cx="962" cy="706" r="4" fill="#6366f1" stroke="none" stroke-width="1" opacity="1"></circle>
            <rect x="974" y="703" width="70" height="6" rx="3" fill="#1c2030" stroke="none" stroke-width="1" opacity="0.85"></rect>
          
            
            <line x1="280" y1="792" x2="1120" y2="792" stroke="#d9d2c2" stroke-width="1" stroke-linecap="round" opacity="1"></line>
            <rect x="296" y="750" width="14" height="14" rx="3" fill="none" stroke="#d9d2c2" stroke-width="1.5" opacity="1"></rect>
            <rect x="328" y="754" width="56" height="8" rx="4" fill="#1c2030" stroke="none" stroke-width="1" opacity="0.85"></rect>
            <rect x="432" y="754" width="70" height="6" rx="3" fill="#5b6175" stroke="none" stroke-width="1" opacity="1"></rect>
            <rect x="432" y="766" width="50" height="6" rx="3" fill="#9ba2b3" stroke="none" stroke-width="1" opacity="1"></rect>
            <!-- avatar + name -->
            <circle cx="560" cy="762" r="10" fill="#34d399" stroke="none" stroke-width="1" opacity="0.8"></circle>
            <rect x="578" y="754" width="90" height="6" rx="3" fill="#1c2030" stroke="none" stroke-width="1" opacity="0.85"></rect>
            <rect x="578" y="766" width="60" height="6" rx="3" fill="#9ba2b3" stroke="none" stroke-width="1" opacity="1"></rect>
            <!-- total -->
            <rect x="712" y="754" width="60" height="8" rx="4" fill="#1c2030" stroke="none" stroke-width="1" opacity="0.85"></rect>
            <!-- payment pill -->
            <rect x="816" y="750" width="90" height="24" rx="12" fill="#6366f1" stroke="none" stroke-width="1" opacity="0.18"></rect>
            <circle cx="828" cy="762" r="4" fill="#6366f1" stroke="none" stroke-width="1" opacity="1"></circle>
            <rect x="840" y="759" width="56" height="6" rx="3" fill="#1c2030" stroke="none" stroke-width="1" opacity="0.85"></rect>
            <!-- fulfillment pill -->
            <rect x="950" y="750" width="110" height="24" rx="12" fill="#6366f1" stroke="none" stroke-width="1" opacity="0.18"></rect>
            <circle cx="962" cy="762" r="4" fill="#6366f1" stroke="none" stroke-width="1" opacity="1"></circle>
            <rect x="974" y="759" width="70" height="6" rx="3" fill="#1c2030" stroke="none" stroke-width="1" opacity="0.85"></rect>
          
            <rect x="280" y="792" width="840" height="56" rx="0" fill="#fbf8f1" stroke="none" stroke-width="1" opacity="0.4"></rect>
            <line x1="280" y1="848" x2="1120" y2="848" stroke="#d9d2c2" stroke-width="1" stroke-linecap="round" opacity="1"></line>
            <rect x="296" y="806" width="14" height="14" rx="3" fill="none" stroke="#d9d2c2" stroke-width="1.5" opacity="1"></rect>
            <rect x="328" y="810" width="56" height="8" rx="4" fill="#1c2030" stroke="none" stroke-width="1" opacity="0.85"></rect>
            <rect x="432" y="810" width="70" height="6" rx="3" fill="#5b6175" stroke="none" stroke-width="1" opacity="1"></rect>
            <rect x="432" y="822" width="50" height="6" rx="3" fill="#9ba2b3" stroke="none" stroke-width="1" opacity="1"></rect>
            <!-- avatar + name -->
            <circle cx="560" cy="818" r="10" fill="#fb7185" stroke="none" stroke-width="1" opacity="0.8"></circle>
            <rect x="578" y="810" width="90" height="6" rx="3" fill="#1c2030" stroke="none" stroke-width="1" opacity="0.85"></rect>
            <rect x="578" y="822" width="60" height="6" rx="3" fill="#9ba2b3" stroke="none" stroke-width="1" opacity="1"></rect>
            <!-- total -->
            <rect x="712" y="810" width="60" height="8" rx="4" fill="#1c2030" stroke="none" stroke-width="1" opacity="0.85"></rect>
            <!-- payment pill -->
            <rect x="816" y="806" width="90" height="24" rx="12" fill="#6366f1" stroke="none" stroke-width="1" opacity="0.18"></rect>
            <circle cx="828" cy="818" r="4" fill="#6366f1" stroke="none" stroke-width="1" opacity="1"></circle>
            <rect x="840" y="815" width="56" height="6" rx="3" fill="#1c2030" stroke="none" stroke-width="1" opacity="0.85"></rect>
            <!-- fulfillment pill -->
            <rect x="950" y="806" width="110" height="24" rx="12" fill="#facc15" stroke="none" stroke-width="1" opacity="0.18"></rect>
            <circle cx="962" cy="818" r="4" fill="#facc15" stroke="none" stroke-width="1" opacity="1"></circle>
            <rect x="974" y="815" width="70" height="6" rx="3" fill="#1c2030" stroke="none" stroke-width="1" opacity="0.85"></rect>
          
            
            <line x1="280" y1="904" x2="1120" y2="904" stroke="#d9d2c2" stroke-width="1" stroke-linecap="round" opacity="1"></line>
            <rect x="296" y="862" width="14" height="14" rx="3" fill="none" stroke="#d9d2c2" stroke-width="1.5" opacity="1"></rect>
            <rect x="328" y="866" width="56" height="8" rx="4" fill="#1c2030" stroke="none" stroke-width="1" opacity="0.85"></rect>
            <rect x="432" y="866" width="70" height="6" rx="3" fill="#5b6175" stroke="none" stroke-width="1" opacity="1"></rect>
            <rect x="432" y="878" width="50" height="6" rx="3" fill="#9ba2b3" stroke="none" stroke-width="1" opacity="1"></rect>
            <!-- avatar + name -->
            <circle cx="560" cy="874" r="10" fill="#6366f1" stroke="none" stroke-width="1" opacity="0.8"></circle>
            <rect x="578" y="866" width="90" height="6" rx="3" fill="#1c2030" stroke="none" stroke-width="1" opacity="0.85"></rect>
            <rect x="578" y="878" width="60" height="6" rx="3" fill="#9ba2b3" stroke="none" stroke-width="1" opacity="1"></rect>
            <!-- total -->
            <rect x="712" y="866" width="60" height="8" rx="4" fill="#1c2030" stroke="none" stroke-width="1" opacity="0.85"></rect>
            <!-- payment pill -->
            <rect x="816" y="862" width="90" height="24" rx="12" fill="#facc15" stroke="none" stroke-width="1" opacity="0.18"></rect>
            <circle cx="828" cy="874" r="4" fill="#d97706" stroke="none" stroke-width="1" opacity="1"></circle>
            <rect x="840" y="871" width="56" height="6" rx="3" fill="#1c2030" stroke="none" stroke-width="1" opacity="0.85"></rect>
            <!-- fulfillment pill -->
            <rect x="950" y="862" width="110" height="24" rx="12" fill="#facc15" stroke="none" stroke-width="1" opacity="0.18"></rect>
            <circle cx="962" cy="874" r="4" fill="#facc15" stroke="none" stroke-width="1" opacity="1"></circle>
            <rect x="974" y="871" width="70" height="6" rx="3" fill="#1c2030" stroke="none" stroke-width="1" opacity="0.85"></rect>
          
            <rect x="280" y="904" width="840" height="56" rx="0" fill="#fbf8f1" stroke="none" stroke-width="1" opacity="0.4"></rect>
            <line x1="280" y1="960" x2="1120" y2="960" stroke="#d9d2c2" stroke-width="1" stroke-linecap="round" opacity="1"></line>
            <rect x="296" y="918" width="14" height="14" rx="3" fill="none" stroke="#d9d2c2" stroke-width="1.5" opacity="1"></rect>
            <rect x="328" y="922" width="56" height="8" rx="4" fill="#1c2030" stroke="none" stroke-width="1" opacity="0.85"></rect>
            <rect x="432" y="922" width="70" height="6" rx="3" fill="#5b6175" stroke="none" stroke-width="1" opacity="1"></rect>
            <rect x="432" y="934" width="50" height="6" rx="3" fill="#9ba2b3" stroke="none" stroke-width="1" opacity="1"></rect>
            <!-- avatar + name -->
            <circle cx="560" cy="930" r="10" fill="#a78bfa" stroke="none" stroke-width="1" opacity="0.8"></circle>
            <rect x="578" y="922" width="90" height="6" rx="3" fill="#1c2030" stroke="none" stroke-width="1" opacity="0.85"></rect>
            <rect x="578" y="934" width="60" height="6" rx="3" fill="#9ba2b3" stroke="none" stroke-width="1" opacity="1"></rect>
            <!-- total -->
            <rect x="712" y="922" width="60" height="8" rx="4" fill="#1c2030" stroke="none" stroke-width="1" opacity="0.85"></rect>
            <!-- payment pill -->
            <rect x="816" y="918" width="90" height="24" rx="12" fill="#6366f1" stroke="none" stroke-width="1" opacity="0.18"></rect>
            <circle cx="828" cy="930" r="4" fill="#6366f1" stroke="none" stroke-width="1" opacity="1"></circle>
            <rect x="840" y="927" width="56" height="6" rx="3" fill="#1c2030" stroke="none" stroke-width="1" opacity="0.85"></rect>
            <!-- fulfillment pill -->
            <rect x="950" y="918" width="110" height="24" rx="12" fill="#6366f1" stroke="none" stroke-width="1" opacity="0.18"></rect>
            <circle cx="962" cy="930" r="4" fill="#6366f1" stroke="none" stroke-width="1" opacity="1"></circle>
            <rect x="974" y="927" width="70" height="6" rx="3" fill="#1c2030" stroke="none" stroke-width="1" opacity="0.85"></rect>
          
            
            
            <rect x="296" y="974" width="14" height="14" rx="3" fill="none" stroke="#d9d2c2" stroke-width="1.5" opacity="1"></rect>
            <rect x="328" y="978" width="56" height="8" rx="4" fill="#1c2030" stroke="none" stroke-width="1" opacity="0.85"></rect>
            <rect x="432" y="978" width="70" height="6" rx="3" fill="#5b6175" stroke="none" stroke-width="1" opacity="1"></rect>
            <rect x="432" y="990" width="50" height="6" rx="3" fill="#9ba2b3" stroke="none" stroke-width="1" opacity="1"></rect>
            <!-- avatar + name -->
            <circle cx="560" cy="986" r="10" fill="#facc15" stroke="none" stroke-width="1" opacity="0.8"></circle>
            <rect x="578" y="978" width="90" height="6" rx="3" fill="#1c2030" stroke="none" stroke-width="1" opacity="0.85"></rect>
            <rect x="578" y="990" width="60" height="6" rx="3" fill="#9ba2b3" stroke="none" stroke-width="1" opacity="1"></rect>
            <!-- total -->
            <rect x="712" y="978" width="60" height="8" rx="4" fill="#1c2030" stroke="none" stroke-width="1" opacity="0.85"></rect>
            <!-- payment pill -->
            <rect x="816" y="974" width="90" height="24" rx="12" fill="#6366f1" stroke="none" stroke-width="1" opacity="0.18"></rect>
            <circle cx="828" cy="986" r="4" fill="#6366f1" stroke="none" stroke-width="1" opacity="1"></circle>
            <rect x="840" y="983" width="56" height="6" rx="3" fill="#1c2030" stroke="none" stroke-width="1" opacity="0.85"></rect>
            <!-- fulfillment pill -->
            <rect x="950" y="974" width="110" height="24" rx="12" fill="#6366f1" stroke="none" stroke-width="1" opacity="0.18"></rect>
            <circle cx="962" cy="986" r="4" fill="#6366f1" stroke="none" stroke-width="1" opacity="1"></circle>
            <rect x="974" y="983" width="70" height="6" rx="3" fill="#1c2030" stroke="none" stroke-width="1" opacity="0.85"></rect>
          

      <!-- pagination -->
      <rect x="280" y="1080" width="840" height="0" rx="0" fill="none" stroke="none" stroke-width="1" opacity="1"></rect>
    </svg>