<svg xmlns="http://www.w3.org/2000/svg" viewBox="0 0 1200 1200" preserveAspectRatio="xMidYMid slice">
      
    <defs>
      <pattern id="dots-16" x="0" y="0" width="14" height="14" patternUnits="userSpaceOnUse">
        <circle cx="2" cy="2" r="1" fill="#1c2030" opacity="0.10"></circle>
      </pattern>
      <pattern id="grid-16" x="0" y="0" width="40" height="40" patternUnits="userSpaceOnUse">
        <path d="M40 0 L0 0 0 40" fill="none" stroke="#1c2030" stroke-width="0.6" opacity="0.08"></path>
      </pattern>
      <pattern id="hatch-16" x="0" y="0" width="6" height="6" patternUnits="userSpaceOnUse" patternTransform="rotate(45)">
        <line x1="0" y1="0" x2="0" y2="6" stroke="#14b8a6" stroke-width="2" opacity="0.55"></line>
      </pattern>
      <linearGradient id="paper-16" x1="0" y1="0" x2="0" y2="1">
        <stop offset="0" stop-color="#ffffff"></stop>
        <stop offset="1" stop-color="#f8f3e8"></stop>
      </linearGradient>
      <linearGradient id="accent-16" x1="0" y1="0" x2="1" y2="1">
        <stop offset="0" stop-color="#14b8a6" stop-opacity="0.95"></stop>
        <stop offset="1" stop-color="#14b8a6" stop-opacity="0.55"></stop>
      </linearGradient>
<filter id="grain-16">
        <feTurbulence type="fractalNoise" baseFrequency="0.9" numOctaves="2" stitchTiles="stitch"></feTurbulence>
        <feColorMatrix values="0 0 0 0 0
                               0 0 0 0 0
                               0 0 0 0 0
                               0 0 0 0.08 0"></feColorMatrix>
        <feComposite in2="SourceGraphic" operator="in"></feComposite>
      </filter>
    </defs>
  
      
      <rect width="1200" height="1200" fill="transparent" />
  <rect width="1200" height="1200" fill="none" />
      
      
    

      
    <rect x="62" y="108" width="1080" height="1000" rx="22" fill="rgba(28,32,48,0.08)"></rect>
    <rect x="60" y="100" width="1080" height="1000" rx="22" fill="#ffffff" stroke="#d9d2c2" stroke-width="1"></rect>
  

      <!-- header: store + secure padlock -->
      <rect x="86" y="130" width="24" height="24" rx="12" fill="#14b8a6" stroke="none" stroke-width="1" opacity="1"></rect>
      <rect x="120" y="138" width="120" height="10" rx="5" fill="#1c2030" stroke="none" stroke-width="1" opacity="0.9"></rect>
      <path d="M 230 138 l 4 4 l -4 4" fill="none" stroke="#5b6175" stroke-width="1.5" stroke-linecap="round" stroke-linejoin="round" opacity="1"></path>
      <rect x="248" y="138" width="90" height="8" rx="4" fill="#14b8a6" stroke="none" stroke-width="1" opacity="1"></rect>
      <!-- breadcrumb / stepper -->
      <rect x="86" y="174" width="24" height="24" rx="12" fill="#14b8a6" stroke="none" stroke-width="1" opacity="1"></rect>
      <rect x="94" y="184" width="8" height="4" rx="2" fill="#ffffff" stroke="none" stroke-width="1" opacity="1"></rect>
      <rect x="120" y="184" width="90" height="8" rx="4" fill="#1c2030" stroke="none" stroke-width="1" opacity="0.85"></rect>
      <path d="M 222 188 l 6 -2 l 0 4 z" fill="#9ba2b3" stroke="none" stroke-width="1" stroke-linecap="round" stroke-linejoin="round" opacity="1"></path>
      <rect x="240" y="184" width="80" height="8" rx="4" fill="#14b8a6" stroke="none" stroke-width="1" opacity="1"></rect>
      <path d="M 332 188 l 6 -2 l 0 4 z" fill="#9ba2b3" stroke="none" stroke-width="1" stroke-linecap="round" stroke-linejoin="round" opacity="1"></path>
      <rect x="350" y="184" width="80" height="8" rx="4" fill="#5b6175" stroke="none" stroke-width="1" opacity="1"></rect>

      <!-- main grid: form + summary -->
      <!-- left form -->
      <rect x="86" y="226" width="60" height="14" rx="4" fill="#5b6175" stroke="none" stroke-width="1" opacity="1"></rect>
      <rect x="86" y="254" width="60" height="12" rx="4" fill="#1c2030" stroke="none" stroke-width="1" opacity="0.9"></rect>
      <rect x="610" y="252" width="110" height="10" rx="5" fill="#14b8a6" stroke="none" stroke-width="1" opacity="1"></rect>
      <!-- email field -->
      <rect x="86" y="290" width="640" height="48" rx="8" fill="#ffffff" stroke="#d9d2c2" stroke-width="1" opacity="1"></rect>
      <rect x="102" y="308" width="180" height="12" rx="4" fill="#1c2030" stroke="none" stroke-width="1" opacity="0.85"></rect>
      <rect x="640" y="304" width="70" height="20" rx="10" fill="#14b8a6" stroke="none" stroke-width="1" opacity="0.18"></rect>
      <rect x="656" y="312" width="38" height="4" rx="2" fill="#14b8a6" stroke="none" stroke-width="1" opacity="1"></rect>
      <!-- checkbox -->
      <rect x="86" y="354" width="16" height="16" rx="3" fill="#14b8a6" stroke="none" stroke-width="1" opacity="1"></rect>
      <path d="M 90 362 l 4 4 l 8 -8" fill="none" stroke="#ffffff" stroke-width="2" stroke-linecap="round" stroke-linejoin="round" opacity="1"></path>
      <rect x="112" y="358" width="280" height="6" rx="3" fill="#5b6175" stroke="none" stroke-width="1" opacity="1"></rect>

      <!-- shipping section -->
      <rect x="86" y="408" width="200" height="12" rx="4" fill="#1c2030" stroke="none" stroke-width="1" opacity="0.9"></rect>
      <!-- country select -->
      <rect x="86" y="444" width="640" height="48" rx="8" fill="#ffffff" stroke="#d9d2c2" stroke-width="1" opacity="1"></rect>
      <rect x="102" y="454" width="50" height="6" rx="3" fill="#5b6175" stroke="none" stroke-width="1" opacity="1"></rect>
      <rect x="102" y="468" width="120" height="10" rx="5" fill="#1c2030" stroke="none" stroke-width="1" opacity="0.85"></rect>
      <path d="M 700 466 l 6 6 l 6 -6" fill="none" stroke="#5b6175" stroke-width="2" stroke-linecap="round" stroke-linejoin="round" opacity="1"></path>

      <!-- name row -->
      <rect x="86" y="506" width="310" height="48" rx="8" fill="#ffffff" stroke="#d9d2c2" stroke-width="1" opacity="1"></rect>
      <rect x="102" y="524" width="90" height="10" rx="5" fill="#1c2030" stroke="none" stroke-width="1" opacity="0.85"></rect>
      <rect x="416" y="506" width="310" height="48" rx="8" fill="#ffffff" stroke="#d9d2c2" stroke-width="1" opacity="1"></rect>
      <rect x="432" y="524" width="110" height="10" rx="5" fill="#1c2030" stroke="none" stroke-width="1" opacity="0.85"></rect>

      <!-- address -->
      <rect x="86" y="568" width="640" height="48" rx="8" fill="#ffffff" stroke="#14b8a6" stroke-width="1.5" opacity="1"></rect>
      <rect x="102" y="586" width="220" height="10" rx="5" fill="#1c2030" stroke="none" stroke-width="1" opacity="0.85"></rect>
      <rect x="86" y="630" width="640" height="48" rx="8" fill="#ffffff" stroke="#d9d2c2" stroke-width="1" opacity="1"></rect>
      <rect x="102" y="648" width="200" height="10" rx="5" fill="#5b6175" stroke="none" stroke-width="1" opacity="1"></rect>

      <!-- city/zip row -->
      <rect x="86" y="692" width="310" height="48" rx="8" fill="#ffffff" stroke="#d9d2c2" stroke-width="1" opacity="1"></rect>
      <rect x="102" y="710" width="80" height="10" rx="5" fill="#1c2030" stroke="none" stroke-width="1" opacity="0.85"></rect>
      <rect x="416" y="692" width="150" height="48" rx="8" fill="#ffffff" stroke="#d9d2c2" stroke-width="1" opacity="1"></rect>
      <rect x="432" y="710" width="50" height="10" rx="5" fill="#1c2030" stroke="none" stroke-width="1" opacity="0.85"></rect>
      <rect x="586" y="692" width="140" height="48" rx="8" fill="#ffffff" stroke="#d9d2c2" stroke-width="1" opacity="1"></rect>
      <rect x="602" y="710" width="50" height="10" rx="5" fill="#1c2030" stroke="none" stroke-width="1" opacity="0.85"></rect>

      <!-- save info checkbox -->
      <rect x="86" y="756" width="16" height="16" rx="3" fill="none" stroke="#d9d2c2" stroke-width="1.5" opacity="1"></rect>
      <rect x="112" y="760" width="280" height="6" rx="3" fill="#5b6175" stroke="none" stroke-width="1" opacity="1"></rect>

      <!-- shipping options -->
      <rect x="86" y="794" width="200" height="10" rx="5" fill="#1c2030" stroke="none" stroke-width="1" opacity="0.9"></rect>
      <rect x="86" y="818" width="640" height="56" rx="8" fill="#ffffff" stroke="#14b8a6" stroke-width="2" opacity="1"></rect>
      <circle cx="112" cy="846" r="9" fill="#ffffff" stroke="#14b8a6" stroke-width="2" opacity="1"></circle>
      <circle cx="112" cy="846" r="4" fill="#14b8a6" stroke="none" stroke-width="1" opacity="1"></circle>
      <rect x="140" y="836" width="140" height="8" rx="4" fill="#1c2030" stroke="none" stroke-width="1" opacity="0.85"></rect>
      <rect x="140" y="852" width="100" height="6" rx="3" fill="#9ba2b3" stroke="none" stroke-width="1" opacity="1"></rect>
      <rect x="660" y="838" width="50" height="10" rx="5" fill="#1c2030" stroke="none" stroke-width="1" opacity="0.85"></rect>
      <rect x="86" y="884" width="640" height="56" rx="8" fill="#ffffff" stroke="#d9d2c2" stroke-width="1" opacity="1"></rect>
      <circle cx="112" cy="912" r="9" fill="#ffffff" stroke="#d9d2c2" stroke-width="2" opacity="1"></circle>
      <rect x="140" y="902" width="160" height="8" rx="4" fill="#1c2030" stroke="none" stroke-width="1" opacity="0.85"></rect>
      <rect x="140" y="918" width="110" height="6" rx="3" fill="#9ba2b3" stroke="none" stroke-width="1" opacity="1"></rect>
      <rect x="660" y="904" width="50" height="10" rx="5" fill="#1c2030" stroke="none" stroke-width="1" opacity="0.85"></rect>

      <!-- nav -->
      <path d="M 86 988 l -6 -6 l 6 -6" fill="none" stroke="#14b8a6" stroke-width="2" stroke-linecap="round" stroke-linejoin="round" opacity="1"></path>
      <rect x="100" y="982" width="100" height="8" rx="4" fill="#14b8a6" stroke="none" stroke-width="1" opacity="1"></rect>
      <rect x="560" y="968" width="166" height="44" rx="8" fill="#1c2030" stroke="none" stroke-width="1" opacity="1"></rect>
      <rect x="596" y="982" width="90" height="16" rx="3" fill="#ffffff" stroke="none" stroke-width="1" opacity="0.95"></rect>

      <!-- RIGHT: order summary -->
      <rect x="770" y="226" width="350" height="814" rx="12" fill="#fbf8f1" stroke="#d9d2c2" stroke-width="1" opacity="1"></rect>
      <rect x="790" y="252" width="120" height="12" rx="4" fill="#1c2030" stroke="none" stroke-width="1" opacity="0.9"></rect>
      <!-- line item 1 -->
      <rect x="790" y="290" width="70" height="70" rx="10" fill="#efe7d3" stroke="none" stroke-width="1" opacity="1"></rect>
      <circle cx="810" cy="318" r="6" fill="#14b8a6" stroke="none" stroke-width="1" opacity="1"></circle>
      <circle cx="840" cy="332" r="16" fill="#1c2030" stroke="none" stroke-width="1" opacity="0.75"></circle>
      <rect x="880" y="296" width="160" height="10" rx="5" fill="#1c2030" stroke="none" stroke-width="1" opacity="0.85"></rect>
      <rect x="880" y="312" width="100" height="6" rx="3" fill="#9ba2b3" stroke="none" stroke-width="1" opacity="1"></rect>
      <rect x="880" y="326" width="80" height="6" rx="3" fill="#9ba2b3" stroke="none" stroke-width="1" opacity="1"></rect>
      <rect x="880" y="344" width="40" height="10" rx="5" fill="#1c2030" stroke="none" stroke-width="1" opacity="0.85"></rect>
      <rect x="1054" y="290" width="16" height="16" rx="8" fill="#14b8a6" stroke="none" stroke-width="1" opacity="1"></rect>
      <rect x="1058" y="296" width="8" height="4" rx="2" fill="#ffffff" stroke="none" stroke-width="1" opacity="1"></rect>

      <!-- line item 2 -->
      <rect x="790" y="376" width="70" height="70" rx="10" fill="#efe7d3" stroke="none" stroke-width="1" opacity="1"></rect>
      <rect x="810" y="396" width="30" height="32" rx="4" fill="#14b8a6" stroke="none" stroke-width="1" opacity="0.85"></rect>
      <rect x="880" y="382" width="140" height="10" rx="5" fill="#1c2030" stroke="none" stroke-width="1" opacity="0.85"></rect>
      <rect x="880" y="398" width="80" height="6" rx="3" fill="#9ba2b3" stroke="none" stroke-width="1" opacity="1"></rect>
      <rect x="880" y="430" width="40" height="10" rx="5" fill="#1c2030" stroke="none" stroke-width="1" opacity="0.85"></rect>
      <rect x="1054" y="376" width="16" height="16" rx="8" fill="#14b8a6" stroke="none" stroke-width="1" opacity="1"></rect>
      <rect x="1058" y="382" width="8" height="4" rx="2" fill="#ffffff" stroke="none" stroke-width="1" opacity="1"></rect>

      <!-- discount input -->
      <rect x="790" y="470" width="240" height="38" rx="6" fill="#ffffff" stroke="#d9d2c2" stroke-width="1" opacity="1"></rect>
      <rect x="806" y="484" width="120" height="8" rx="4" fill="#5b6175" stroke="none" stroke-width="1" opacity="1"></rect>
      <rect x="1040" y="470" width="60" height="38" rx="6" fill="#1c2030" stroke="none" stroke-width="1" opacity="1"></rect>
      <rect x="1058" y="484" width="24" height="8" rx="4" fill="#ffffff" stroke="none" stroke-width="1" opacity="0.95"></rect>

      <!-- totals -->
      <line x1="790" y1="542" x2="1100" y2="542" stroke="#d9d2c2" stroke-width="1" stroke-linecap="round" opacity="1"></line>
      <rect x="790" y="562" width="80" height="8" rx="4" fill="#5b6175" stroke="none" stroke-width="1" opacity="1"></rect>
      <rect x="1040" y="562" width="60" height="8" rx="4" fill="#1c2030" stroke="none" stroke-width="1" opacity="0.85"></rect>
      <rect x="790" y="588" width="100" height="8" rx="4" fill="#5b6175" stroke="none" stroke-width="1" opacity="1"></rect>
      <rect x="1040" y="588" width="60" height="8" rx="4" fill="#1c2030" stroke="none" stroke-width="1" opacity="0.85"></rect>
      <rect x="790" y="614" width="60" height="8" rx="4" fill="#5b6175" stroke="none" stroke-width="1" opacity="1"></rect>
      <rect x="1040" y="614" width="40" height="8" rx="4" fill="#1c2030" stroke="none" stroke-width="1" opacity="0.85"></rect>
      <line x1="790" y1="644" x2="1100" y2="644" stroke="#d9d2c2" stroke-width="1" stroke-linecap="round" opacity="1"></line>
      <rect x="790" y="664" width="60" height="14" rx="5" fill="#1c2030" stroke="none" stroke-width="1" opacity="0.9"></rect>
      <rect x="790" y="686" width="30" height="6" rx="3" fill="#5b6175" stroke="none" stroke-width="1" opacity="1"></rect>
      <rect x="1020" y="664" width="80" height="22" rx="6" fill="#1c2030" stroke="none" stroke-width="1" opacity="1"></rect>

      <!-- trust badges -->
      <rect x="790" y="730" width="310" height="60" rx="8" fill="#ffffff" stroke="#d9d2c2" stroke-width="1" opacity="1"></rect>
      <circle cx="820" cy="760" r="16" fill="#14b8a6" stroke="none" stroke-width="1" opacity="0.18"></circle>
      <path d="M 814 758 q 6 -8 12 0 l -6 4 z" fill="#14b8a6" stroke="none" stroke-width="1" stroke-linecap="round" stroke-linejoin="round" opacity="1"></path>
      <rect x="848" y="750" width="200" height="8" rx="4" fill="#1c2030" stroke="none" stroke-width="1" opacity="0.85"></rect>
      <rect x="848" y="766" width="140" height="6" rx="3" fill="#9ba2b3" stroke="none" stroke-width="1" opacity="1"></rect>

      <!-- payment logos placeholder -->
      <rect x="790" y="808" width="70" height="36" rx="6" fill="#ffffff" stroke="#d9d2c2" stroke-width="1" opacity="1"></rect><rect x="868" y="808" width="70" height="36" rx="6" fill="#ffffff" stroke="#d9d2c2" stroke-width="1" opacity="1"></rect><rect x="946" y="808" width="70" height="36" rx="6" fill="#ffffff" stroke="#d9d2c2" stroke-width="1" opacity="1"></rect><rect x="1024" y="808" width="70" height="36" rx="6" fill="#ffffff" stroke="#d9d2c2" stroke-width="1" opacity="1"></rect>
      <rect x="810" y="822" width="30" height="8" rx="4" fill="#14b8a6" stroke="none" stroke-width="1" opacity="0.75"></rect>
      <rect x="888" y="822" width="30" height="8" rx="4" fill="#1c2030" stroke="none" stroke-width="1" opacity="0.6"></rect>
      <rect x="966" y="822" width="30" height="8" rx="4" fill="#5b6175" stroke="none" stroke-width="1" opacity="0.6"></rect>
      <rect x="1044" y="822" width="30" height="8" rx="4" fill="#fb7185" stroke="none" stroke-width="1" opacity="0.7"></rect>

      <!-- support link -->
      <rect x="790" y="870" width="200" height="6" rx="3" fill="#14b8a6" stroke="none" stroke-width="1" opacity="1"></rect>
      <rect x="790" y="888" width="280" height="6" rx="3" fill="#5b6175" stroke="none" stroke-width="1" opacity="1"></rect>
      <rect x="790" y="902" width="240" height="6" rx="3" fill="#5b6175" stroke="none" stroke-width="1" opacity="1"></rect>
    </svg>