<svg xmlns="http://www.w3.org/2000/svg" viewBox="0 0 1200 1200" preserveAspectRatio="xMidYMid slice">
  <defs>
    <pattern id="dots-exec" x="0" y="0" width="14" height="14" patternUnits="userSpaceOnUse">
      <circle cx="2" cy="2" r="1" fill="#1c2030" opacity="0.10" />
    </pattern>
    <pattern id="grid-exec" x="0" y="0" width="40" height="40" patternUnits="userSpaceOnUse">
      <path d="M40 0 L0 0 0 40" fill="none" stroke="#1c2030" stroke-width="0.6" opacity="0.08" />
    </pattern>
    <pattern id="hatch-exec" x="0" y="0" width="6" height="6" patternUnits="userSpaceOnUse" patternTransform="rotate(45)">
      <line x1="0" y1="0" x2="0" y2="6" stroke="#f43f5e" stroke-width="2" opacity="0.55" />
    </pattern>
    <linearGradient id="paper-exec" x1="0" y1="0" x2="0" y2="1">
      <stop offset="0" stop-color="#ffffff" />
      <stop offset="1" stop-color="#f8f3e8" />
    </linearGradient>
    <linearGradient id="accent-exec" x1="0" y1="0" x2="1" y2="1">
      <stop offset="0" stop-color="#f43f5e" stop-opacity="0.95" />
      <stop offset="1" stop-color="#f43f5e" stop-opacity="0.55" />
    </linearGradient>
    <filter id="grain-exec">
      <feTurbulence type="fractalNoise" baseFrequency="0.9" numOctaves="2" stitchTiles="stitch" />
      <feColorMatrix values="0 0 0 0 0 0 0 0 0 0 0 0 0 0 0 0 0 0 0.08 0" />
      <feComposite in2="SourceGraphic" operator="in" />
    </filter>
  </defs>

  <rect width="1200" height="1200" fill="transparent" />
  <rect width="1200" height="1200" fill="none" />
  <rect x="0" y="760" width="1200" height="440" fill="#e7dcc6" />
  <rect x="0" y="760" width="1200" height="440" fill="url(#dots-exec)" />

  <g transform="translate(280, 240)">
    <rect x="20" y="60" width="660" height="480" rx="24" fill="rgba(28,32,48,0.08)" />
    <rect x="0" y="0" width="660" height="440" rx="22" fill="#e1d8c4" />
    <rect x="20" y="20" width="620" height="400" rx="14" fill="#1d2333" />
    <rect x="40" y="40" width="580" height="28" rx="4" fill="#262d40" />
    <circle cx="58" cy="54" r="5" fill="#fb7185" />
    <circle cx="74" cy="54" r="5" fill="#facc15" />
    <circle cx="90" cy="54" r="5" fill="#34d399" />
    <rect x="60" y="90" width="80" height="8" rx="3" fill="#f43f5e" opacity="0.85" />
    <rect x="150" y="90" width="140" height="8" rx="3" fill="#e2e8f0" opacity="0.85" />
    <rect x="300" y="90" width="60" height="8" rx="3" fill="#9ba2b3" opacity="0.85" />
    <rect x="60" y="122" width="60" height="8" rx="3" fill="#9ba2b3" opacity="0.85" />
    <rect x="130" y="122" width="200" height="8" rx="3" fill="#e2e8f0" opacity="0.85" />
    <rect x="60" y="154" width="40" height="8" rx="3" fill="#f43f5e" opacity="0.85" />
    <rect x="110" y="154" width="120" height="8" rx="3" fill="#e2e8f0" opacity="0.85" />
    <rect x="240" y="154" width="80" height="8" rx="3" fill="#34d399" opacity="0.85" />
    <rect x="60" y="186" width="80" height="8" rx="3" fill="#9ba2b3" opacity="0.85" />
    <rect x="150" y="186" width="60" height="8" rx="3" fill="#f43f5e" opacity="0.85" />
    <rect x="220" y="186" width="180" height="8" rx="3" fill="#e2e8f0" opacity="0.85" />
    <rect x="60" y="218" width="160" height="8" rx="3" fill="#e2e8f0" opacity="0.85" />
    <rect x="230" y="218" width="40" height="8" rx="3" fill="#f43f5e" opacity="0.85" />
    <rect x="60" y="250" width="60" height="8" rx="3" fill="#9ba2b3" opacity="0.85" />
    <rect x="130" y="250" width="240" height="8" rx="3" fill="#e2e8f0" opacity="0.85" />
    <rect x="380" y="250" width="40" height="8" rx="3" fill="#f43f5e" opacity="0.85" />
    <rect x="60" y="282" width="80" height="8" rx="3" fill="#f43f5e" opacity="0.85" />
    <rect x="150" y="282" width="60" height="8" rx="3" fill="#e2e8f0" opacity="0.85" />
    <rect x="220" y="282" width="120" height="8" rx="3" fill="#9ba2b3" opacity="0.85" />
    <rect x="60" y="314" width="40" height="8" rx="3" fill="#9ba2b3" opacity="0.85" />
    <rect x="110" y="314" width="180" height="8" rx="3" fill="#e2e8f0" opacity="0.85" />
    <rect x="60" y="346" width="60" height="8" rx="3" fill="#f43f5e" opacity="0.85" />
    <rect x="130" y="346" width="200" height="8" rx="3" fill="#e2e8f0" opacity="0.85" />
    <rect x="340" y="346" width="60" height="8" rx="3" fill="#34d399" opacity="0.85" />
    <rect x="0" y="432" width="660" height="12" rx="6" fill="#cdc2a8" />
    <rect x="20" y="458" width="620" height="60" rx="8" fill="#d3c8b1" />
  </g>

  <g transform="translate(80, 820)">
    <rect x="8" y="16" width="280" height="200" rx="8" fill="rgba(28,32,48,0.08)" />
    <rect x="0" y="0" width="280" height="200" rx="8" fill="#ffffff" stroke="#d9d2c2" stroke-width="1" />
    <rect x="0" y="0" width="14" height="200" rx="4" fill="#f43f5e" />
    <rect x="34" y="26" width="220" height="6" rx="3" fill="#9ba2b3" />
    <rect x="34" y="54" width="160" height="6" rx="3" fill="#9ba2b3" />
    <rect x="34" y="82" width="220" height="6" rx="3" fill="#9ba2b3" />
    <rect x="34" y="110" width="160" height="6" rx="3" fill="#9ba2b3" />
    <rect x="34" y="138" width="220" height="6" rx="3" fill="#9ba2b3" />
    <rect x="34" y="166" width="160" height="6" rx="3" fill="#9ba2b3" />
    <rect x="34" y="26" width="14" height="14" rx="3" fill="none" stroke="#1c2030" stroke-width="1" />
    <path
      d="M 36 32 l 5 5 l 9 -8"
      fill="none"
      stroke="#f43f5e"
      stroke-width="2.5"
      stroke-linecap="round"
      stroke-linejoin="round"
    />
    <rect x="34" y="54" width="14" height="14" rx="3" fill="none" stroke="#1c2030" stroke-width="1" />
    <path
      d="M 36 60 l 5 5 l 9 -8"
      fill="none"
      stroke="#f43f5e"
      stroke-width="2.5"
      stroke-linecap="round"
      stroke-linejoin="round"
    />
    <rect x="34" y="82" width="14" height="14" rx="3" fill="none" stroke="#1c2030" stroke-width="1" />
  </g>

  <g transform="translate(360, 1050) rotate(-18)">
    <rect x="0" y="0" width="240" height="16" rx="8" fill="#1c2030" />
    <rect x="220" y="0" width="30" height="16" rx="4" fill="#f43f5e" />
    <path d="M 250 0 l 14 8 l -14 8 z" fill="#f43f5e" stroke-linecap="round" stroke-linejoin="round" />
  </g>

  <g transform="translate(960, 880)">
    <rect x="0" y="30" width="120" height="180" rx="16" fill="#ffffff" stroke="#d9d2c2" stroke-width="1" />
    <rect x="0" y="30" width="120" height="36" rx="16" fill="#3b2a1d" />
    <rect x="0" y="50" width="120" height="16" fill="#3b2a1d" />
    <path
      d="M 120 70 q 50 0 50 50 q 0 50 -50 50"
      fill="none"
      stroke="#ffffff"
      stroke-width="16"
      stroke-linecap="round"
      stroke-linejoin="round"
    />
    <path
      d="M 120 70 q 50 0 50 50 q 0 50 -50 50"
      fill="none"
      stroke="#d9d2c2"
      stroke-width="1"
      stroke-linecap="round"
      stroke-linejoin="round"
    />
    <path
      d="M 30 -10 q 10 -20 0 -40 q -10 -20 0 -40"
      fill="none"
      stroke="#9ba2b3"
      stroke-width="3"
      stroke-linecap="round"
      stroke-linejoin="round"
      opacity="0.5"
    />
    <path
      d="M 70 -10 q -10 -20 0 -40 q 10 -20 0 -40"
      fill="none"
      stroke="#9ba2b3"
      stroke-width="3"
      stroke-linecap="round"
      stroke-linejoin="round"
      opacity="0.5"
    />
  </g>

  <g transform="translate(770, 880) rotate(8)">
    <rect x="0" y="0" width="160" height="160" rx="4" fill="#fff3a8" />
    <rect x="20" y="24" width="80" height="8" rx="4" fill="#1c2030" opacity="0.85" />
    <rect x="20" y="50" width="120" height="6" rx="3" fill="#5b6175" opacity="0.75" />
    <rect x="20" y="72" width="80" height="6" rx="3" fill="#5b6175" opacity="0.75" />
    <rect x="20" y="94" width="120" height="6" rx="3" fill="#5b6175" opacity="0.75" />
    <rect x="20" y="116" width="80" height="6" rx="3" fill="#5b6175" opacity="0.75" />
  </g>

  <g transform="translate(800, 870) rotate(-3)">
    <rect x="0" y="0" width="160" height="160" rx="4" fill="#f43f5e" opacity="0.6" />
    <rect x="20" y="24" width="100" height="8" rx="4" fill="#1c2030" opacity="0.85" />
    <rect x="20" y="50" width="120" height="6" rx="3" fill="#1c2030" opacity="0.6" />
    <rect x="20" y="72" width="80" height="6" rx="3" fill="#1c2030" opacity="0.6" />
    <rect x="20" y="94" width="120" height="6" rx="3" fill="#1c2030" opacity="0.6" />
  </g>

  <g transform="translate(80, 240) rotate(-6)">
    <rect x="8" y="16" width="200" height="380" rx="30" fill="rgba(28,32,48,0.08)" />
    <rect x="0" y="0" width="200" height="380" rx="28" fill="#1c2030" />
    <rect x="10" y="10" width="180" height="360" rx="22" fill="#ffffff" />
    <rect x="28" y="40" width="144" height="80" rx="12" fill="#f43f5e" opacity="0.18" />
    <circle cx="60" cy="80" r="22" fill="#f43f5e" />
    <rect x="28" y="140" width="144" height="60" rx="8" fill="#efe7d3" />
    <rect x="28" y="210" width="70" height="70" rx="8" fill="#efe7d3" />
    <rect x="102" y="210" width="70" height="70" rx="8" fill="#efe7d3" />
    <rect x="28" y="290" width="144" height="12" rx="6" fill="#1c2030" opacity="0.85" />
    <rect x="28" y="310" width="100" height="8" rx="4" fill="#9ba2b3" />
    <rect x="28" y="326" width="120" height="8" rx="4" fill="#9ba2b3" />
  </g>
</svg>
