<svg xmlns="http://www.w3.org/2000/svg" viewBox="0 0 1200 1200" preserveAspectRatio="xMidYMid slice">
  <defs>
    <pattern id="dots-a11y" x="0" y="0" width="14" height="14" patternUnits="userSpaceOnUse">
      <circle cx="2" cy="2" r="1" fill="#1c2030" opacity="0.10" />
    </pattern>
    <pattern id="grid-a11y" x="0" y="0" width="40" height="40" patternUnits="userSpaceOnUse">
      <path d="M40 0 L0 0 0 40" fill="none" stroke="#1c2030" stroke-width="0.6" opacity="0.08" />
    </pattern>
    <pattern id="hatch-a11y" x="0" y="0" width="6" height="6" patternUnits="userSpaceOnUse" patternTransform="rotate(45)">
      <line x1="0" y1="0" x2="0" y2="6" stroke="#f59e0b" stroke-width="2" opacity="0.55" />
    </pattern>
    <linearGradient id="paper-a11y" x1="0" y1="0" x2="0" y2="1">
      <stop offset="0" stop-color="#ffffff" />
      <stop offset="1" stop-color="#f8f3e8" />
    </linearGradient>
    <linearGradient id="accent-a11y" x1="0" y1="0" x2="1" y2="1">
      <stop offset="0" stop-color="#f59e0b" stop-opacity="0.95" />
      <stop offset="1" stop-color="#f59e0b" stop-opacity="0.55" />
    </linearGradient>
    <filter id="grain-a11y">
      <feTurbulence type="fractalNoise" baseFrequency="0.9" numOctaves="2" stitchTiles="stitch" />
      <feColorMatrix values="0 0 0 0 0 0 0 0 0 0 0 0 0 0 0 0 0 0 0.08 0" />
      <feComposite in2="SourceGraphic" operator="in" />
    </filter>
  </defs>

  <rect width="1200" height="1200" fill="transparent" />
  <rect width="1200" height="1200" fill="none" />
  <g transform="translate(220, 200)">
    <circle cx="180" cy="210" r="200" fill="none" stroke="#f59e0b" stroke-width="18" opacity="0.35" />
    <circle cx="180" cy="110" r="36" fill="#1c2030" />
    <rect x="70" y="168" width="220" height="22" rx="11" fill="#1c2030" />
    <path
      d="M 130 188 L 180 320 L 230 188 Z"
      fill="#1c2030"
      stroke-linecap="round"
      stroke-linejoin="round"
    />
    <rect x="170" y="188" width="20" height="130" rx="10" fill="#1c2030" />
  </g>

  <rect x="662" y="188" width="460" height="740" rx="18" fill="rgba(28,32,48,0.08)" />
  <rect x="660" y="180" width="460" height="740" rx="18" fill="#ffffff" stroke="#d9d2c2" stroke-width="1" />

  <rect x="680" y="210" width="200" height="30" rx="6" fill="#efe7d3" />
  <rect x="900" y="210" width="70" height="22" rx="11" fill="#f59e0b" opacity="0.85" />
  <rect x="984" y="210" width="116" height="22" rx="11" fill="#efe7d3" />

  <rect x="680" y="270" width="420" height="132" rx="12" fill="#fbf8f1" stroke="#d9d2c2" stroke-width="1" />
  <circle cx="710" cy="306" r="18" fill="#f59e0b" opacity="0.9" />
  <path
    d="M 702 306 l 6 6 l 12 -12"
    fill="none"
    stroke="#ffffff"
    stroke-width="4"
    stroke-linecap="round"
    stroke-linejoin="round"
  />
  <rect x="746" y="298" width="200" height="10" rx="5" fill="#1c2030" opacity="0.85" />
  <rect x="746" y="316" width="280" height="6" rx="3" fill="#9ba2b3" />
  <rect x="746" y="330" width="240" height="6" rx="3" fill="#9ba2b3" />
  <rect x="700" y="356" width="360" height="22" rx="11" fill="#efe7d3" />
  <rect x="700" y="356" width="180" height="22" rx="11" fill="#f59e0b" opacity="0.85" />
  <rect x="1070" y="358" width="18" height="18" rx="4" fill="#f59e0b" />

  <rect x="680" y="428" width="420" height="132" rx="12" fill="#fbf8f1" stroke="#d9d2c2" stroke-width="1" />
  <circle cx="710" cy="464" r="18" fill="#f59e0b" opacity="0.9" />
  <path
    d="M 702 464 l 6 6 l 12 -12"
    fill="none"
    stroke="#ffffff"
    stroke-width="4"
    stroke-linecap="round"
    stroke-linejoin="round"
  />
  <rect x="746" y="456" width="200" height="10" rx="5" fill="#1c2030" opacity="0.85" />
  <rect x="746" y="474" width="280" height="6" rx="3" fill="#9ba2b3" />
  <rect x="746" y="488" width="240" height="6" rx="3" fill="#9ba2b3" />
  <rect x="700" y="514" width="360" height="22" rx="11" fill="#efe7d3" />
  <rect x="700" y="514" width="216" height="22" rx="11" fill="#f59e0b" opacity="0.85" />
  <rect x="1070" y="516" width="18" height="18" rx="4" fill="#f59e0b" />

  <rect x="680" y="586" width="420" height="132" rx="12" fill="#fbf8f1" stroke="#d9d2c2" stroke-width="1" />
  <circle cx="710" cy="622" r="18" fill="#f59e0b" opacity="0.9" />
  <path
    d="M 702 622 l 6 6 l 12 -12"
    fill="none"
    stroke="#ffffff"
    stroke-width="4"
    stroke-linecap="round"
    stroke-linejoin="round"
  />
  <rect x="746" y="614" width="200" height="10" rx="5" fill="#1c2030" opacity="0.85" />
  <rect x="746" y="632" width="280" height="6" rx="3" fill="#9ba2b3" />
  <rect x="746" y="646" width="240" height="6" rx="3" fill="#9ba2b3" />
  <rect x="700" y="672" width="360" height="22" rx="11" fill="#efe7d3" />
  <rect x="700" y="672" width="252" height="22" rx="11" fill="#f59e0b" opacity="0.85" />
  <rect x="1070" y="674" width="18" height="18" rx="4" fill="#f59e0b" />

  <rect x="680" y="744" width="420" height="132" rx="12" fill="#fbf8f1" stroke="#d9d2c2" stroke-width="1" />
  <circle cx="710" cy="780" r="18" fill="#facc15" opacity="0.95" />
  <rect x="708" y="772" width="4" height="12" rx="2" fill="#1c2030" />
  <rect x="746" y="772" width="200" height="10" rx="5" fill="#1c2030" opacity="0.85" />
  <rect x="746" y="790" width="280" height="6" rx="3" fill="#9ba2b3" />
  <rect x="746" y="804" width="240" height="6" rx="3" fill="#9ba2b3" />
  <rect x="700" y="830" width="360" height="22" rx="11" fill="#efe7d3" />
  <rect x="700" y="830" width="288" height="22" rx="11" fill="#f59e0b" opacity="0.85" />
  <rect x="1070" y="832" width="18" height="18" rx="4" fill="#facc15" />

  <rect x="80" y="760" width="240" height="200" rx="18" fill="#1c2030" />
  <circle cx="160" cy="860" r="50" fill="#ffffff" />
  <rect x="220" y="838" width="80" height="8" rx="4" fill="#ffffff" opacity="0.85" />
  <rect x="220" y="856" width="60" height="8" rx="4" fill="#ffffff" opacity="0.55" />
  <rect x="220" y="874" width="70" height="8" rx="4" fill="#ffffff" opacity="0.85" />
  <rect x="70" y="750" width="260" height="220" rx="22" fill="none" stroke="#f59e0b" stroke-width="4" opacity="0.9" />
</svg>
